<?xml version="1.0" encoding="utf-8"?><!DOCTYPE svg PUBLIC "-//W3C//DTD SVG 1.1//EN" "http://www.w3.org/Graphics/SVG/1.1/DTD/svg11.dtd"><svg version="1.1" baseProfile="full" xmlns="http://www.w3.org/2000/svg" xmlns:xlink="http://www.w3.org/1999/xlink" xmlns:ev="http://www.w3.org/2001/xml-events"   height="29px"   width="39px" ><path fill="rgb( 141, 198, 66 )" d="M37.7909999999999,22.441 C37.7909999999999,22.441 34.201,22.441 34.201,22.441 C33.5419999999999,22.441 33.0039999999999,21.899 33.0039999999999,21.237 C33.0039999999999,21.237 33.0039999999999,1.97300000000001 33.0039999999999,1.97300000000001 C33.0039999999999,1.31099999999998 33.5419999999999,0.76900000000001 34.201,0.76900000000001 C34.201,0.76900000000001 37.7909999999999,0.76900000000001 37.7909999999999,0.76900000000001 C38.4490000000001,0.76900000000001 38.9880000000001,1.31099999999998 38.9880000000001,1.97300000000001 C38.9880000000001,1.97300000000001 38.9880000000001,21.237 38.9880000000001,21.237 C38.9880000000001,21.899 38.4490000000001,22.441 37.7909999999999,22.441 ZM29.6110000000001,20.033 C29.6110000000001,20.033 26.02,20.033 26.02,20.033 C25.364,20.033 24.8230000000001,19.491 24.8230000000001,18.829 C24.8230000000001,18.829 24.8230000000001,11.605 24.8230000000001,11.605 C24.8230000000001,10.943 25.364,10.401 26.02,10.401 C26.02,10.401 29.6110000000001,10.401 29.6110000000001,10.401 C30.271,10.401 30.808,10.943 30.808,11.605 C30.808,11.605 30.808,18.829 30.808,18.829 C30.808,19.491 30.271,20.033 29.6110000000001,20.033 ZM21.433,24.849 C21.433,24.849 17.8420000000001,24.849 17.8420000000001,24.849 C17.184,24.849 16.645,24.307 16.645,23.645 C16.645,23.645 16.645,5.58499999999998 16.645,5.58499999999998 C16.645,4.923 17.184,4.38099999999997 17.8420000000001,4.38099999999997 C17.8420000000001,4.38099999999997 21.433,4.38099999999997 21.433,4.38099999999997 C22.0909999999999,4.38099999999997 22.6300000000001,4.923 22.6300000000001,5.58499999999998 C22.6300000000001,5.58499999999998 22.6300000000001,23.645 22.6300000000001,23.645 C22.6300000000001,24.307 22.0909999999999,24.849 21.433,24.849 ZM13.2539999999999,28.462 C13.2539999999999,28.462 9.66300000000001,28.462 9.66300000000001,28.462 C9.00399999999991,28.462 8.46599999999989,27.919 8.46599999999989,27.2569999999999 C8.46599999999989,27.2569999999999 8.46599999999989,12.809 8.46599999999989,12.809 C8.46599999999989,12.147 9.00399999999991,11.605 9.66300000000001,11.605 C9.66300000000001,11.605 13.2539999999999,11.605 13.2539999999999,11.605 C13.9110000000001,11.605 14.451,12.147 14.451,12.809 C14.451,12.809 14.451,27.2569999999999 14.451,27.2569999999999 C14.451,27.919 13.9110000000001,28.462 13.2539999999999,28.462 ZM5.07400000000007,22.441 C5.07400000000007,22.441 1.48299999999995,22.441 1.48299999999995,22.441 C0.82500000000005,22.441 0.28600000000006,21.899 0.28600000000006,21.237 C0.28600000000006,21.237 0.28600000000006,10.401 0.28600000000006,10.401 C0.28600000000006,9.73899999999998 0.82500000000005,9.197 1.48299999999995,9.197 C1.48299999999995,9.197 5.07400000000007,9.197 5.07400000000007,9.197 C5.73199999999997,9.197 6.27099999999996,9.73899999999998 6.27099999999996,10.401 C6.27099999999996,10.401 6.27099999999996,21.237 6.27099999999996,21.237 C6.27099999999996,21.899 5.73199999999997,22.441 5.07400000000007,22.441 Z "/></svg>