<?xml version="1.0" encoding="utf-8"?><!DOCTYPE svg PUBLIC "-//W3C//DTD SVG 1.1//EN" "http://www.w3.org/Graphics/SVG/1.1/DTD/svg11.dtd"><svg version="1.1" baseProfile="full" xmlns="http://www.w3.org/2000/svg" xmlns:xlink="http://www.w3.org/1999/xlink" xmlns:ev="http://www.w3.org/2001/xml-events"   height="32px"   width="32px" ><path fill="rgb( 190, 190, 190 )" d="M29.617,31.8809999999999 C29.617,31.8809999999999 3.28300000000002,31.8809999999999 3.28300000000002,31.8809999999999 C2.02300000000002,31.8809999999999 0.99300000000005,30.8600000000001 0.99300000000005,29.6120000000001 C0.99300000000005,29.6120000000001 0.99300000000005,5.21300000000019 0.99300000000005,5.21300000000019 C0.99300000000005,3.96399999999994 2.02300000000002,2.94300000000021 3.28300000000002,2.94300000000021 C3.28300000000002,2.94300000000021 7.28999999999996,2.94300000000021 7.28999999999996,2.94300000000021 C7.28999999999996,2.94300000000021 7.28999999999996,1.80799999999999 7.28999999999996,1.80799999999999 C7.28999999999996,1.18199999999979 7.803,0.67399999999998 8.43499999999995,0.67399999999998 C8.43499999999995,0.67399999999998 8.43499999999995,6.91600000000017 8.43499999999995,6.91600000000017 C7.803,6.91600000000017 7.28999999999996,6.4079999999999 7.28999999999996,5.7800000000002 C7.28999999999996,5.7800000000002 7.28999999999996,4.86400000000003 7.28999999999996,4.86400000000003 C6.94200000000001,5.20200000000023 6.72400000000005,5.67299999999977 6.72400000000005,6.19599999999991 C6.72400000000005,7.22800000000007 7.56799999999998,8.0630000000001 8.60799999999995,8.0630000000001 C9.64800000000002,8.0630000000001 10.492,7.22800000000007 10.492,6.19599999999991 C10.492,5.51899999999978 10.125,4.93199999999979 9.58000000000004,4.60399999999981 C9.58000000000004,4.60399999999981 9.58000000000004,2.94300000000021 9.58000000000004,2.94300000000021 C9.58000000000004,2.94300000000021 22.747,2.94300000000021 22.747,2.94300000000021 C22.747,2.94300000000021 22.747,1.80799999999999 22.747,1.80799999999999 C22.747,1.18199999999979 23.26,0.67399999999998 23.8920000000001,0.67399999999998 C23.8920000000001,0.67399999999998 23.8920000000001,6.91600000000017 23.8920000000001,6.91600000000017 C23.26,6.91600000000017 22.747,6.4079999999999 22.747,5.7800000000002 C22.747,5.7800000000002 22.747,4.86400000000003 22.747,4.86400000000003 C22.398,5.20200000000023 22.181,5.67299999999977 22.181,6.19599999999991 C22.181,7.22800000000007 23.025,8.0630000000001 24.0650000000001,8.0630000000001 C25.104,8.0630000000001 25.949,7.22800000000007 25.949,6.19599999999991 C25.949,5.51899999999978 25.581,4.93199999999979 25.037,4.60399999999981 C25.037,4.60399999999981 25.037,2.94300000000021 25.037,2.94300000000021 C25.037,2.94300000000021 29.617,2.94300000000021 29.617,2.94300000000021 C30.876,2.94300000000021 31.9059999999999,3.96399999999994 31.9059999999999,5.21300000000019 C31.9059999999999,5.21300000000019 31.9059999999999,29.6120000000001 31.9059999999999,29.6120000000001 C31.9059999999999,30.8600000000001 30.876,31.8809999999999 29.617,31.8809999999999 ZM28.472,13.1570000000002 C28.472,12.5329999999999 27.956,12.0219999999999 27.327,12.0219999999999 C27.327,12.0219999999999 5.57299999999998,12.0219999999999 5.57299999999998,12.0219999999999 C4.94299999999998,12.0219999999999 4.428,12.5329999999999 4.428,13.1570000000002 C4.428,13.1570000000002 4.428,24.3090000000002 4.428,24.3090000000002 C4.428,24.933 4.697,25.8530000000001 5.02599999999995,26.3539999999998 C5.35500000000002,26.8539999999998 6.029,27.5360000000001 6.52200000000005,27.8699999999999 C7.01599999999996,28.2040000000002 7.93499999999995,28.4760000000001 8.56500000000005,28.4760000000001 C8.56500000000005,28.4760000000001 27.327,28.4760000000001 27.327,28.4760000000001 C27.956,28.4760000000001 28.472,27.9659999999999 28.472,27.3420000000001 C28.472,27.3420000000001 28.472,13.1570000000002 28.472,13.1570000000002 ZM24.8099999999999,25.9209999999998 C24.351,26.0680000000002 22.297,26.0749999999998 21.817,25.9209999999998 C21.049,25.674 21.043,24.944 21.043,23.721 C21.043,22.453 20.927,21.761 21.972,21.5210000000002 C22.487,21.404 24.268,21.346 24.8099999999999,21.5210000000002 C25.622,21.7820000000002 25.585,22.6100000000001 25.585,23.721 C25.585,24.8319999999999 25.676,25.6419999999998 24.8099999999999,25.9209999999998 ZM24.8099999999999,19.1170000000002 C24.351,19.2649999999999 22.297,19.2719999999999 21.817,19.1170000000002 C21.049,18.8699999999999 21.043,18.1399999999999 21.043,16.9180000000001 C21.043,15.6500000000001 20.927,14.9580000000001 21.972,14.7179999999998 C22.487,14.5999999999999 24.268,14.5439999999999 24.8099999999999,14.7179999999998 C25.622,14.9780000000001 25.585,15.8069999999998 25.585,16.9180000000001 C25.585,18.029 25.676,18.8380000000002 24.8099999999999,19.1170000000002 ZM17.947,25.9209999999998 C17.487,26.0680000000002 15.434,26.0749999999998 14.953,25.9209999999998 C14.1849999999999,25.674 14.179,24.944 14.179,23.721 C14.179,22.453 14.063,21.761 15.109,21.5210000000002 C15.623,21.404 17.404,21.346 17.947,21.5210000000002 C18.7569999999999,21.7820000000002 18.721,22.6100000000001 18.721,23.721 C18.721,24.8319999999999 18.812,25.6419999999998 17.947,25.9209999999998 ZM17.947,19.1170000000002 C17.487,19.2649999999999 15.434,19.2719999999999 14.953,19.1170000000002 C14.1849999999999,18.8699999999999 14.179,18.1399999999999 14.179,16.9180000000001 C14.179,15.6500000000001 14.063,14.9580000000001 15.109,14.7179999999998 C15.623,14.5999999999999 17.404,14.5439999999999 17.947,14.7179999999998 C18.7569999999999,14.9780000000001 18.721,15.8069999999998 18.721,16.9180000000001 C18.721,18.029 18.812,18.8380000000002 17.947,19.1170000000002 ZM11.083,25.9209999999998 C10.624,26.0680000000002 8.57000000000005,26.0749999999998 8.09000000000003,25.9209999999998 C7.32100000000003,25.674 7.31600000000003,24.944 7.31600000000003,23.721 C7.31600000000003,22.453 7.19899999999996,21.761 8.245,21.5210000000002 C8.75900000000001,21.404 10.54,21.346 11.083,21.5210000000002 C11.894,21.7820000000002 11.857,22.6100000000001 11.857,23.721 C11.857,24.8319999999999 11.949,25.6419999999998 11.083,25.9209999999998 ZM11.083,19.1170000000002 C10.624,19.2649999999999 8.57000000000005,19.2719999999999 8.09000000000003,19.1170000000002 C7.32100000000003,18.8699999999999 7.31600000000003,18.1399999999999 7.31600000000003,16.9180000000001 C7.31600000000003,15.6500000000001 7.19899999999996,14.9580000000001 8.245,14.7179999999998 C8.75900000000001,14.5999999999999 10.54,14.5439999999999 11.083,14.7179999999998 C11.894,14.9780000000001 11.857,15.8069999999998 11.857,16.9180000000001 C11.857,18.029 11.949,18.8380000000002 11.083,19.1170000000002 Z "/></svg>