<?xml version="1.0" encoding="utf-8"?><!DOCTYPE svg PUBLIC "-//W3C//DTD SVG 1.1//EN" "http://www.w3.org/Graphics/SVG/1.1/DTD/svg11.dtd"><svg version="1.1" baseProfile="full" xmlns="http://www.w3.org/2000/svg" xmlns:xlink="http://www.w3.org/1999/xlink" xmlns:ev="http://www.w3.org/2001/xml-events"   height="16px"   width="20px" ><path fill="rgb( 0, 133, 63 )" d="M17.229,1.14999999999998 C17.002,0.93200000000002 16.629,0.93200000000002 16.402,1.14999999999998 C16.402,1.14999999999998 8.32899999999995,8.79200000000003 8.32899999999995,8.79200000000003 C8.101,9.01199999999994 7.72799999999995,9.01199999999994 7.50099999999998,8.79200000000003 C7.50099999999998,8.79200000000003 4.327,5.71699999999998 4.327,5.71699999999998 C4.21400000000006,5.60799999999995 4.06600000000003,5.553 3.91700000000003,5.55200000000002 C3.76700000000005,5.55100000000004 3.61400000000003,5.60500000000002 3.5,5.71699999999998 C3.5,5.71699999999998 1.16499999999996,7.80100000000004 1.16499999999996,7.80100000000004 C1.05200000000002,7.90999999999997 0.99199999999996,8.048 0.99199999999996,8.19200000000001 C0.99199999999996,8.33600000000001 1.05200000000002,8.48800000000006 1.16499999999996,8.596 C1.16499999999996,8.596 5.01700000000005,12.451 5.01700000000005,12.451 C5.245,12.671 5.61800000000005,13.028 5.84500000000003,13.248 C5.84500000000003,13.248 7.50099999999998,14.8390000000001 7.50099999999998,14.8390000000001 C7.72799999999995,15.058 8.101,15.058 8.32899999999995,14.8390000000001 C8.32899999999995,14.8390000000001 19.5309999999999,4.17399999999998 19.5309999999999,4.17399999999998 C19.759,3.95500000000004 19.759,3.596 19.5309999999999,3.37699999999995 C19.5309999999999,3.37699999999995 17.229,1.14999999999998 17.229,1.14999999999998 Z "/></svg>