<?xml version="1.0" encoding="utf-8"?><!DOCTYPE svg PUBLIC "-//W3C//DTD SVG 1.1//EN" "http://www.w3.org/Graphics/SVG/1.1/DTD/svg11.dtd"><svg version="1.1" baseProfile="full" xmlns="http://www.w3.org/2000/svg" xmlns:xlink="http://www.w3.org/1999/xlink" xmlns:ev="http://www.w3.org/2001/xml-events"   height="14px"   width="13px" ><path fill-opacity="0.29" fill="rgb( 200, 200, 200 )" d="M12.817,11.774 C12.817,11.774 8.05199999999991,7.00899999999999 8.05199999999991,7.00899999999999 C8.05199999999991,7.00899999999999 12.806,2.256 12.806,2.256 C12.806,2.256 11.2370000000001,0.68700000000001 11.2370000000001,0.68700000000001 C11.2370000000001,0.68700000000001 6.48299999999995,5.44 6.48299999999995,5.44 C6.48299999999995,5.44 1.73000000000002,0.68700000000001 1.73000000000002,0.68700000000001 C1.73000000000002,0.68700000000001 0.14899999999989,2.268 0.14899999999989,2.268 C0.14899999999989,2.268 4.90300000000002,7.02099999999999 4.90300000000002,7.02099999999999 C4.90300000000002,7.02099999999999 0.14899999999989,11.774 0.14899999999989,11.774 C0.14899999999989,11.774 1.71800000000007,13.343 1.71800000000007,13.343 C1.71800000000007,13.343 6.471,8.589 6.471,8.589 C6.471,8.589 11.2370000000001,13.355 11.2370000000001,13.355 C11.2370000000001,13.355 12.817,11.774 12.817,11.774 Z "/></svg>