<?xml version="1.0" encoding="UTF-8" standalone="no"?>
<svg width="286px" height="176px" viewBox="0 0 286 176" version="1.1" xmlns="http://www.w3.org/2000/svg" xmlns:xlink="http://www.w3.org/1999/xlink" xmlns:sketch="http://www.bohemiancoding.com/sketch/ns">
    <!-- Generator: Sketch 3.1 (8751) - http://www.bohemiancoding.com/sketch -->
    <title>Векторный смарт-объект</title>
    <desc>Created with Sketch.</desc>
    <defs>
        <path id="path-1" d="M0,-0.189 L285.885,-0.189 L285.885,175 L0,175"></path>
    </defs>
    <g id="Page-1" stroke="none" stroke-width="1" fill="none" fill-rule="evenodd" sketch:type="MSPage">
        <g id="Векторный-смарт-объект" sketch:type="MSLayerGroup" transform="translate(0.000000, 1.000000)">
            <mask id="mask-2" sketch:name="Clip 2" fill="white">
                <use xlink:href="#path-1"></use>
            </mask>
            <g id="Clip-2"></g>
            <path d="M237.9536,79.1362 C234.5496,79.1362 231.2266,79.5042 228.0186,80.1812 C228.0186,79.9932 228.0356,79.8302 228.0356,79.6512 C228.0356,35.5472 192.2906,-0.1898 148.2036,-0.1898 C110.9646,-0.1898 79.6846,25.3112 70.8616,59.7902 C66.8126,58.9092 62.6086,58.4282 58.2986,58.4282 C26.1046,58.4282 -0.0004,84.5152 -0.0004,116.7182 C-0.0004,148.9112 26.1046,175.0002 58.2986,175.0002 L237.9536,175.0002 C264.4256,175.0002 285.8856,153.5482 285.8856,127.0682 C285.8856,100.5882 264.4256,79.1362 237.9536,79.1362" id="Fill-1" fill="#80DCFF" sketch:type="MSShapeGroup" mask="url(#mask-2)"></path>
        </g>
    </g>
</svg>