<?xml version="1.0" encoding="UTF-8" standalone="no"?>
<svg width="120px" height="120px" viewBox="0 0 120 120" version="1.1" xmlns="http://www.w3.org/2000/svg" xmlns:xlink="http://www.w3.org/1999/xlink" xmlns:sketch="http://www.bohemiancoding.com/sketch/ns">
    <!-- Generator: Sketch 3.1 (8751) - http://www.bohemiancoding.com/sketch -->
    <title>communication</title>
    <desc>Created with Sketch.</desc>
    <defs></defs>
    <g id="Page-1" stroke="none" stroke-width="1" fill="none" fill-rule="evenodd" sketch:type="MSPage">
        <g id="communication" sketch:type="MSLayerGroup">
            <path d="M38.6338,85.0391 C39.8968,85.1921 41.1878,85.2731 42.5058,85.2731 C56.2988,85.2731 67.4828,76.5761 67.4828,65.8481 C67.4828,58.3481 62.0078,51.8511 54.0048,48.6141 L47.0058,41.6121 C61.4568,43.3911 72.5718,53.5771 72.5718,65.8481 C72.5718,68.7471 71.9488,71.5301 70.8108,74.1141 C71.7558,74.1851 72.7178,74.2241 73.6908,74.2241 C77.1708,74.2241 80.5068,73.7521 83.6078,72.8921 L93.8208,78.6011 L93.8208,68.0451 C99.5888,63.8561 103.1968,57.8971 103.1968,51.2781 C103.1968,46.1261 100.9848,41.3841 97.2938,37.5551 L119.9938,60.2541 C119.9998,26.8631 93.1368,0.0001 59.9998,0.0001 C26.8628,0.0001 -0.0002,26.8631 -0.0002,60.0001 C-0.0002,91.5631 24.3768,117.4151 55.3278,119.8021 L28.8278,93.3001 L38.6338,85.0391 L38.6338,85.0391 Z" id="Fill-1" fill="#64C078" sketch:type="MSShapeGroup"></path>
            <path d="M97.2937,37.5549 C100.9847,41.3839 103.1977,46.1259 103.1977,51.2779 C103.1977,57.8979 99.5887,63.8569 93.8207,68.0449 L93.8207,78.6009 L83.6077,72.8919 C80.5067,73.7519 77.1707,74.2239 73.6907,74.2239 C72.7177,74.2239 71.7557,74.1849 70.8107,74.1139 C71.9487,71.5299 72.5727,68.7469 72.5727,65.8479 C72.5727,53.5769 61.4567,43.3909 47.0057,41.6119 L54.0047,48.6139 C62.0077,51.8519 67.4827,58.3479 67.4827,65.8479 C67.4827,76.5759 56.2987,85.2739 42.5057,85.2739 C41.1877,85.2739 39.8967,85.1919 38.6337,85.0389 L28.8277,93.2999 L55.3277,119.8019 C56.8717,119.9209 58.4257,119.9999 59.9997,119.9999 C93.0517,119.9999 119.8567,93.2729 119.9937,60.2539 L97.2937,37.5549 L97.2937,37.5549 Z" id="Fill-4" fill="#4DAB6B" sketch:type="MSShapeGroup"></path>
            <path d="M36.3193,65.2803 C36.3193,63.8513 35.1633,62.6943 33.7333,62.6943 C32.3043,62.6943 31.1473,63.8513 31.1473,65.2803 C31.1473,66.7103 32.3043,67.8683 33.7333,67.8683 C35.1633,67.8683 36.3193,66.7103 36.3193,65.2803" id="Fill-6" fill="#949494" sketch:type="MSShapeGroup"></path>
            <path d="M27.8467,75.4619 L30.8207,78.4369 L30.6827,77.6339 C29.6537,76.9809 28.7067,76.2499 27.8467,75.4619" id="Fill-8" fill="#BABABA" sketch:type="MSShapeGroup"></path>
            <path d="M46.9375,41.5986 C51.6335,33.7646 61.8465,28.3326 73.6905,28.3326 C89.9865,28.3326 103.1975,38.6036 103.1975,51.2766 C103.1975,57.8946 99.5885,63.8546 93.8205,68.0416 L93.8205,78.5966 L83.6075,72.8896 C80.5065,73.7486 77.1705,74.2216 73.6905,74.2216 C72.7175,74.2216 71.7555,74.1816 70.8115,74.1126 C71.9485,71.5266 72.5725,68.7446 72.5725,65.8456 C72.5725,53.5556 61.4245,43.3536 46.9375,41.5986" id="Fill-10" fill="#FFFFFF" sketch:type="MSShapeGroup"></path>
            <path d="M17.5215,65.8457 C17.5215,55.1167 28.7065,46.4177 42.5055,46.4177 C56.2985,46.4177 67.4825,55.1167 67.4825,65.8457 C67.4825,76.5737 56.2985,85.2707 42.5055,85.2707 C41.1875,85.2707 39.8965,85.1907 38.6335,85.0367 L28.8275,93.2967 L26.7115,80.8957 C21.1055,77.3357 17.5215,71.9127 17.5215,65.8457" id="Fill-12" fill="#FFFFFF" sketch:type="MSShapeGroup"></path>
            <path d="M42.0869,69.6904 C43.7279,69.6904 45.0549,68.3604 45.0549,66.7194 C45.0549,65.0804 43.7279,63.7524 42.0869,63.7524 C40.4479,63.7524 39.1179,65.0804 39.1179,66.7194 C39.1179,68.3604 40.4479,69.6904 42.0869,69.6904" id="Fill-14" fill="#64C078" sketch:type="MSShapeGroup"></path>
            <path d="M30.8965,69.6904 C32.5375,69.6904 33.8645,68.3604 33.8645,66.7194 C33.8645,65.0804 32.5375,63.7524 30.8965,63.7524 C29.2585,63.7524 27.9275,65.0804 27.9275,66.7194 C27.9275,68.3604 29.2585,69.6904 30.8965,69.6904" id="Fill-16" fill="#64C078" sketch:type="MSShapeGroup"></path>
            <path d="M56.9282,66.7197 C56.9282,65.0797 55.6012,63.7517 53.9602,63.7517 C52.3192,63.7517 50.9902,65.0797 50.9902,66.7197 C50.9902,68.3607 52.3192,69.6907 53.9602,69.6907 C55.6012,69.6907 56.9282,68.3607 56.9282,66.7197" id="Fill-18" fill="#64C078" sketch:type="MSShapeGroup"></path>
        </g>
    </g>
</svg>