<?xml version="1.0" encoding="UTF-8" standalone="no"?>
<svg width="61px" height="85px" viewBox="0 0 61 85" version="1.1" xmlns="http://www.w3.org/2000/svg" xmlns:xlink="http://www.w3.org/1999/xlink" xmlns:sketch="http://www.bohemiancoding.com/sketch/ns">
    <!-- Generator: Sketch 3.1 (8751) - http://www.bohemiancoding.com/sketch -->
    <title>Векторный смарт-объект</title>
    <desc>Created with Sketch.</desc>
    <defs></defs>
    <g id="Page-1" stroke="none" stroke-width="1" fill="none" fill-rule="evenodd" sketch:type="MSPage">
        <g id="Векторный-смарт-объект" sketch:type="MSLayerGroup" transform="translate(0.000000, 1.000000)">
            <path d="M60.335,80.3809 C60.335,82.3689 58.71,83.9999 56.716,83.9999 L3.619,83.9999 C1.626,83.9999 0,82.3689 0,80.3809 L0,3.1429 C0,1.1539 1.626,-0.4761 3.619,-0.4761 L56.716,-0.4761 C58.71,-0.4761 60.335,1.1539 60.335,3.1429 L60.335,80.3809 Z" id="Fill-1" fill="#5D6D7E" sketch:type="MSShapeGroup"></path>
            <path d="M53.8721,49.9326 L50.0701,46.1296 C53.7681,41.6626 55.9941,35.9306 55.9941,29.6916 C55.9941,15.4546 44.4091,3.8676 30.1681,3.8676 C15.9261,3.8676 4.3421,15.4546 4.3421,29.6916 L4.3421,42.8356 C5.8551,43.1686 6.9981,44.5186 6.9981,46.1296 C6.9981,47.7476 5.8551,49.1006 4.3421,49.4336 L4.3421,71.9296 C4.3421,73.9956 5.1451,75.9356 6.6041,77.3946 C8.0631,78.8536 10.0031,79.6586 12.0651,79.6586 L50.1421,79.6586 L55.9941,73.8086 L55.9941,55.0566 C55.9941,54.1286 55.8191,53.1916 55.4431,52.2856 C55.0691,51.3766 54.5241,50.5896 53.8721,49.9326" id="Fill-3" fill="#34495E" sketch:type="MSShapeGroup"></path>
            <path d="M54.3057,29.6934 C54.3057,43.0244 43.4997,53.8324 30.1677,53.8324 C16.8367,53.8324 6.0327,43.0244 6.0327,29.6934 C6.0327,16.3634 16.8367,5.5554 30.1677,5.5554 C43.4997,5.5554 54.3057,16.3634 54.3057,29.6934" id="Fill-5" fill="#FFFFFF" sketch:type="MSShapeGroup"></path>
            <path d="M39.2158,29.6914 C39.2158,34.6934 35.1658,38.7464 30.1678,38.7464 C25.1658,38.7464 21.1188,34.6934 21.1188,29.6914 C21.1188,24.6954 25.1658,20.6424 30.1678,20.6424 C35.1658,20.6424 39.2158,24.6954 39.2158,29.6914" id="Fill-7" fill="#34495E" sketch:type="MSShapeGroup"></path>
            <path d="M38.251,29.6914 C38.251,34.1604 34.632,37.7794 30.168,37.7794 C25.703,37.7794 22.081,34.1604 22.081,29.6914 C22.081,25.2264 25.703,21.6074 30.168,21.6074 C34.632,21.6074 38.251,25.2264 38.251,29.6914" id="Fill-9" fill="#FF7059" sketch:type="MSShapeGroup"></path>
            <path d="M31.9756,29.6914 C31.9756,30.6944 31.1656,31.5024 30.1676,31.5024 C29.1666,31.5024 28.3566,30.6944 28.3566,29.6914 C28.3566,28.6954 29.1666,27.8804 30.1676,27.8804 C31.1656,27.8804 31.9756,28.6954 31.9756,29.6914" id="Fill-11" fill="#34495E" sketch:type="MSShapeGroup"></path>
            <path d="M31.0098,24.7441 C31.0098,25.2111 30.6338,25.5901 30.1678,25.5901 C29.6978,25.5901 29.3218,25.2111 29.3218,24.7441 C29.3218,24.2771 29.6978,23.9011 30.1678,23.9011 C30.6338,23.9011 31.0098,24.2771 31.0098,24.7441" id="Fill-13" fill="#34495E" sketch:type="MSShapeGroup"></path>
            <path d="M25.2207,28.8486 C25.6877,28.8486 26.0637,29.2276 26.0637,29.6916 C26.0637,30.1606 25.6877,30.5366 25.2207,30.5366 C24.7537,30.5366 24.3777,30.1606 24.3777,29.6916 C24.3777,29.2276 24.7537,28.8486 25.2207,28.8486" id="Fill-15" fill="#34495E" sketch:type="MSShapeGroup"></path>
            <path d="M29.3223,34.6436 C29.3223,34.1776 29.6983,33.7986 30.1683,33.7986 C30.6343,33.7986 31.0103,34.1776 31.0103,34.6436 C31.0103,35.1096 30.6343,35.4866 30.1683,35.4866 C29.6983,35.4866 29.3223,35.1096 29.3223,34.6436" id="Fill-17" fill="#34495E" sketch:type="MSShapeGroup"></path>
            <path d="M35.1143,30.5371 C34.6453,30.5371 34.2683,30.1601 34.2683,29.6911 C34.2683,29.2271 34.6453,28.8491 35.1143,28.8491 C35.5843,28.8491 35.9603,29.2271 35.9603,29.6911 C35.9603,30.1601 35.5843,30.5371 35.1143,30.5371" id="Fill-19" fill="#34495E" sketch:type="MSShapeGroup"></path>
            <path d="M40.8301,44.5957 C40.9541,44.4337 41.0171,44.2357 41.0051,44.0227 C40.9911,43.8067 40.8961,43.6157 40.7601,43.4747 L40.6211,43.3347 C40.4781,43.1957 40.2851,43.1007 40.0751,43.0897 C39.8621,43.0757 39.6611,43.1447 39.5061,43.2637 L18.7671,59.3277 C17.8741,60.0227 17.2631,61.0857 17.1881,62.3107 C17.1101,63.5337 17.5761,64.6697 18.3831,65.4747 L18.6241,65.7137 C19.4231,66.5157 20.5591,66.9847 21.7841,66.9087 C23.0061,66.8317 24.0691,66.2247 24.7671,65.3247 L40.8301,44.5957 Z" id="Fill-21" fill="#CDD3DA" sketch:type="MSShapeGroup"></path>
            <path d="M23.0469,63.6064 C22.3159,64.3394 21.1269,64.3394 20.3929,63.6064 C19.6569,62.8724 19.6569,61.6834 20.3929,60.9534 C21.1269,60.2184 22.3159,60.2184 23.0469,60.9534 C23.7829,61.6834 23.7829,62.8724 23.0469,63.6064" id="Fill-23" fill="#34495E" sketch:type="MSShapeGroup"></path>
            <path d="M21.7217,68.3105 C18.3897,68.3105 15.6837,65.6115 15.6837,62.2785 L15.6837,53.8315 L6.0327,53.8315 L6.0327,71.9295 C6.0327,73.4745 6.6207,75.0215 7.7987,76.1995 C8.9747,77.3765 10.5187,77.9665 12.0657,77.9665 L30.1677,77.9665 L30.1677,68.3105 L21.7217,68.3105 Z" id="Fill-25" fill="#5D6D7E" sketch:type="MSShapeGroup"></path>
            <path d="M54.3057,68.3105 L33.1237,68.3105 L33.1237,77.9665 L49.4467,77.9665 L54.3057,73.1075 L54.3057,68.3105 Z" id="Fill-27" fill="#FF7059" sketch:type="MSShapeGroup"></path>
            <path d="M5.3066,3.1426 C5.3066,4.0776 4.5456,4.8336 3.6186,4.8336 C2.6836,4.8336 1.9276,4.0776 1.9276,3.1426 C1.9276,2.2086 2.6836,1.4546 3.6186,1.4546 C4.5456,1.4546 5.3066,2.2086 5.3066,3.1426" id="Fill-29" fill="#FFFFFF" sketch:type="MSShapeGroup"></path>
            <path d="M58.4043,3.1426 C58.4043,4.0776 57.6493,4.8336 56.7163,4.8336 C55.7833,4.8336 55.0283,4.0776 55.0283,3.1426 C55.0283,2.2086 55.7833,1.4546 56.7163,1.4546 C57.6493,1.4546 58.4043,2.2086 58.4043,3.1426" id="Fill-31" fill="#FFFFFF" sketch:type="MSShapeGroup"></path>
            <path d="M5.3066,46.1299 C5.3066,47.0669 4.5456,47.8179 3.6186,47.8179 C2.6836,47.8179 1.9276,47.0669 1.9276,46.1299 C1.9276,45.1999 2.6836,44.4419 3.6186,44.4419 C4.5456,44.4419 5.3066,45.1999 5.3066,46.1299" id="Fill-33" fill="#FFFFFF" sketch:type="MSShapeGroup"></path>
            <path d="M58.4043,46.1299 C58.4043,47.0669 57.6493,47.8179 56.7163,47.8179 C55.7833,47.8179 55.0283,47.0669 55.0283,46.1299 C55.0283,45.1999 55.7833,44.4419 56.7163,44.4419 C57.6493,44.4419 58.4043,45.1999 58.4043,46.1299" id="Fill-35" fill="#FFFFFF" sketch:type="MSShapeGroup"></path>
            <path d="M5.3066,80.3809 C5.3066,81.3129 4.5456,82.0719 3.6186,82.0719 C2.6836,82.0719 1.9276,81.3129 1.9276,80.3809 C1.9276,79.4449 2.6836,78.6919 3.6186,78.6919 C4.5456,78.6919 5.3066,79.4449 5.3066,80.3809" id="Fill-37" fill="#FFFFFF" sketch:type="MSShapeGroup"></path>
            <path d="M58.4043,80.3809 C58.4043,81.3129 57.6493,82.0719 56.7163,82.0719 C55.7833,82.0719 55.0283,81.3129 55.0283,80.3809 C55.0283,79.4449 55.7833,78.6919 56.7163,78.6919 C57.6493,78.6919 58.4043,79.4449 58.4043,80.3809" id="Fill-39" fill="#FFFFFF" sketch:type="MSShapeGroup"></path>
        </g>
    </g>
</svg>