<?xml version="1.0" encoding="utf-8"?><!DOCTYPE svg PUBLIC "-//W3C//DTD SVG 1.1//EN" "http://www.w3.org/Graphics/SVG/1.1/DTD/svg11.dtd"><svg version="1.1" baseProfile="full" xmlns="http://www.w3.org/2000/svg" xmlns:xlink="http://www.w3.org/1999/xlink" xmlns:ev="http://www.w3.org/2001/xml-events"   height="33px"   width="36px" ><path fill="rgb( 241, 91, 38 )" d="M32.473,22.624 C28.784,27.515 21.377,30.737 12.657,28.46 C9.36599999999999,30.17 5.46000000000004,31.268 1.26300000000003,32.077 C2.15099999999995,30.136 3.06399999999996,28.206 3.65700000000004,25.747 C3.84100000000001,24.989 4.18299999999999,24.009 4.07000000000005,23.2809999999999 C3.98500000000001,22.732 3.34299999999996,22.218 3.07899999999995,21.802 C1.85199999999998,19.862 0.92999999999995,17.312 1.17999999999995,13.829 C1.45500000000004,10.01 3.61300000000006,6.93899999999996 6.29999999999995,4.78700000000003 C9.072,2.56600000000003 12.561,1.02800000000002 16.785,0.75900000000001 C21.9349999999999,0.43100000000004 25.799,1.83399999999995 29.088,4.12900000000002 C32.259,6.34199999999998 34.789,9.53300000000002 35.115,13.746 C35.421,17.705 34.196,20.3390000000001 32.473,22.624 ZM26.8579999999999,6.59500000000003 C24.264,4.87800000000004 20.903,3.79999999999995 17.033,4.04700000000003 C13.626,4.26400000000001 10.91,5.41099999999994 8.69399999999996,7.08799999999997 C6.68499999999995,8.60799999999995 4.74000000000001,11.056 4.48299999999995,13.9930000000001 C4.19399999999996,17.292 5.36500000000001,19.427 6.71199999999999,21.062 C7.00199999999995,21.413 7.72500000000002,21.955 7.78599999999994,22.377 C7.822,22.6319999999999 7.62199999999996,23.357 7.53800000000001,23.775 C7.25099999999998,25.199 6.69200000000001,26.489 6.54700000000003,27.638 C8.19200000000001,27.011 9.64999999999998,26.579 11.088,25.83 C11.6079999999999,25.559 12.0309999999999,25.128 12.492,25.09 C12.95,25.052 13.592,25.313 14.143,25.419 C19.609,26.4690000000001 24.458,25.385 27.684,22.871 C29.636,21.349 31.521,19.077 31.812,15.966 C32.253,11.2569999999999 29.521,8.35699999999997 26.8579999999999,6.59500000000003 ZM19.923,18.021 C19.015,18.021 18.106,18.021 17.198,18.021 C17.188,16.886 17.235,16.194 17.694,15.473 C18.473,14.247 20.255,13.6369999999999 20.501,12.349 C21.111,9.149 16.018,9.12199999999996 16.373,12.349 C15.4640000000001,12.349 14.556,12.349 13.648,12.349 C13.867,9.16399999999999 15.321,7.37800000000004 18.354,7.33500000000004 C21.015,7.29700000000003 23.547,8.97699999999998 23.308,12.02 C23.21,13.276 22.644,14.02 21.987,14.7329999999999 C21.071,15.726 19.9880000000001,16.254 19.923,18.021 ZM18.272,19.418 C19.289,19.231 20.0700000000001,19.708 20.253,20.487 C20.691,22.35 18.352,23.424 17.2809999999999,22.131 C16.482,21.167 17.009,19.65 18.272,19.418 Z "/></svg>