<?xml version="1.0" encoding="utf-8"?><!DOCTYPE svg PUBLIC "-//W3C//DTD SVG 1.1//EN" "http://www.w3.org/Graphics/SVG/1.1/DTD/svg11.dtd"><svg version="1.1" baseProfile="full" xmlns="http://www.w3.org/2000/svg" xmlns:xlink="http://www.w3.org/1999/xlink" xmlns:ev="http://www.w3.org/2001/xml-events"   height="33px"   width="36px" ><path fill="rgb( 20, 128, 193 )" d="M35.1,29.15 C35.1,29.15 0.899,29.15 0.899,29.15 C0.39999999999998,29.15 0,28.749 0,28.255 C0,28.255 0,3.84300000000002 0,3.84300000000002 C0,3.34500000000003 0.39999999999998,2.94400000000002 0.899,2.94400000000002 C0.899,2.94400000000002 24.7329999999999,2.94400000000002 24.7329999999999,2.94400000000002 C24.7329999999999,2.94400000000002 21.6130000000001,5.10399999999998 21.6130000000001,5.10399999999998 C21.6130000000001,5.10399999999998 2.22699999999998,5.10399999999998 2.22699999999998,5.10399999999998 C2.22699999999998,5.10399999999998 2.22699999999998,23.427 2.22699999999998,23.427 C2.22699999999998,23.427 33.764,23.427 33.764,23.427 C33.764,23.427 33.764,5.10399999999998 33.764,5.10399999999998 C33.764,5.10399999999998 29.958,5.10399999999998 29.958,5.10399999999998 C29.958,5.10399999999998 30.706,4.24099999999999 30.706,4.24099999999999 C31.117,3.767 31.457,3.34100000000001 31.731,2.94400000000002 C31.731,2.94400000000002 35.1,2.94400000000002 35.1,2.94400000000002 C35.5940000000001,2.94400000000002 35.996,3.34500000000003 35.996,3.84300000000002 C35.996,3.84300000000002 35.996,28.255 35.996,28.255 C35.996,28.749 35.5940000000001,29.15 35.1,29.15 ZM13.626,14.0170000000001 C13.599,13.847 13.664,13.649 13.827,13.505 C14.055,13.3 14.376,13.284 14.538,13.468 C14.538,13.468 16.768,15.966 16.768,15.966 C16.934,16.149 16.879,16.466 16.651,16.673 C16.491,16.817 16.287,16.862 16.123,16.8150000000001 C16.098,16.847 16.08,16.88 16.048,16.907 C15.843,17.091 15.557,17.106 15.411,16.941 C15.411,16.941 13.422,14.711 13.422,14.711 C13.275,14.546 13.321,14.263 13.525,14.081 C13.556,14.052 13.59,14.035 13.626,14.0170000000001 ZM8.20499999999998,21.208 C7.66300000000001,21.101 7.31799999999998,20.984 7.31799999999998,20.984 C9.66300000000001,20.799 8.53500000000003,18.6799999999999 9.90300000000002,16.583 C10.761,15.265 13.125,14.944 13.125,14.944 C13.125,14.944 15.355,17.446 15.355,17.446 C15.355,17.446 14.946,19.009 13.002,20.436 C12.128,21.074 10.524,21.487 9.60199999999998,21.365 C10.193,20.506 10.033,19.703 10.033,19.703 C9.79700000000003,20.9400000000001 9.17599999999999,21.3440000000001 8.20499999999998,21.208 ZM21.801,12.185 C19.669,14.643 17.48,16.158 16.939,15.552 C16.4,14.943 15.51,13.95 14.969,13.342 C14.43,12.735 16.173,10.722 18.849,8.87200000000001 C21.521,7.01999999999998 25.9,3.988 28.573,2.13600000000002 C31.249,0.28399999999999 31.691,0.78100000000001 29.559,3.24200000000002 C27.427,5.70100000000002 23.937,9.72399999999999 21.801,12.185 ZM22.753,29.705 C22.753,29.705 22.753,31.657 22.753,31.657 C22.753,31.657 13.242,31.657 13.242,31.657 C13.242,31.657 13.242,29.705 13.242,29.705 C13.242,29.705 22.753,29.705 22.753,29.705 ZM10.967,32.091 C10.967,32.091 25.0309999999999,32.091 25.0309999999999,32.091 C25.3869999999999,32.091 25.676,32.3819999999999 25.676,32.742 C25.676,32.742 25.676,32.984 25.676,32.984 C25.676,32.984 10.321,32.984 10.321,32.984 C10.321,32.984 10.321,32.742 10.321,32.742 C10.321,32.3819999999999 10.61,32.091 10.967,32.091 Z "/></svg>