<?xml version="1.0" encoding="utf-8"?><!DOCTYPE svg PUBLIC "-//W3C//DTD SVG 1.1//EN" "http://www.w3.org/Graphics/SVG/1.1/DTD/svg11.dtd"><svg version="1.1" baseProfile="full" xmlns="http://www.w3.org/2000/svg" xmlns:xlink="http://www.w3.org/1999/xlink" xmlns:ev="http://www.w3.org/2001/xml-events"   height="34px"   width="35px" ><path fill="rgb( 19, 187, 198 )" d="M32.05,26.501 C30.578,26.648 28.9659999999999,26.501 27.308,26.501 C22.7639999999999,26.501 17.1949999999999,26.501 13.085,26.501 C13.117,25.659 13.021,24.693 13.133,23.929 C17.165,23.929 21.53,23.929 25.5840000000001,23.929 C26.991,23.929 28.453,24.061 29.751,23.929 C30.7850000000001,23.825 31.4110000000001,23.2190000000001 31.5229999999999,22.246 C31.6479999999999,21.1609999999999 31.5229999999999,19.886 31.5229999999999,18.599 C31.5229999999999,16.1609999999999 31.5229999999999,13.64 31.5229999999999,11.259 C31.5229999999999,9.779 31.758,7.73599999999999 31.3309999999999,6.72400000000005 C30.8099999999999,5.48699999999997 29.4200000000001,5.601 27.692,5.601 C22.711,5.601 18,5.64099999999996 13.085,5.55499999999995 C13.085,4.65099999999995 13.085,3.74699999999996 13.085,2.84299999999996 C14.825,2.84299999999996 16.5650000000001,2.84299999999996 18.3050000000001,2.84299999999996 C18.3050000000001,1.42499999999995 19.1959999999999,0.87599999999998 20.46,0.69200000000001 C20.9390000000001,0.69200000000001 21.4179999999999,0.69200000000001 21.8969999999999,0.69200000000001 C23.0940000000001,0.89499999999998 24.037,1.34500000000003 23.9079999999999,2.84299999999996 C25.002,2.84299999999996 26.492,2.84299999999996 27.979,2.84299999999996 C31.009,2.84299999999996 33.8789999999999,2.36699999999996 34.1569999999999,4.89999999999998 C34.1569999999999,11.461 34.1569999999999,18.023 34.1569999999999,24.5839999999999 C33.96,25.694 33.223,26.384 32.05,26.501 ZM8.48800000000006,7.37800000000004 C5.33200000000011,8.96000000000004 1.96299999999997,5.60199999999998 3.60300000000007,2.56200000000001 C4.00099999999998,1.82500000000005 5.05500000000006,0.88800000000003 6.28500000000008,0.69200000000001 C6.65200000000004,0.69200000000001 7.01900000000001,0.69200000000001 7.38599999999997,0.69200000000001 C9.03899999999999,0.96199999999999 10.3009999999999,2.351 10.451,3.77800000000002 C10.623,5.41399999999999 9.79999999999995,6.72000000000003 8.48800000000006,7.37800000000004 ZM4.08200000000011,9.01499999999999 C4.80999999999995,9.90800000000002 5.56700000000001,10.775 6.66799999999989,11.306 C7.50700000000006,10.986 8.26199999999994,10.5069999999999 8.77500000000009,9.95000000000005 C9.048,9.65300000000002 9.17100000000005,9.27499999999998 9.49299999999994,9.01499999999999 C12.1079999999999,9.01499999999999 15.0830000000001,9.01499999999999 17.778,9.01499999999999 C18.672,9.01499999999999 19.8679999999999,8.83199999999999 20.508,9.06100000000004 C21.444,9.39599999999996 21.6769999999999,12.326 20.604,12.708 C20.0350000000001,12.91 19.075,12.755 18.3050000000001,12.755 C15.8340000000001,12.755 13.529,12.755 11.2170000000001,12.755 C11.2170000000001,17.604 11.2170000000001,23.806 11.2170000000001,28.885 C11.2170000000001,29.704 11.3209999999999,30.5359999999999 11.2170000000001,31.223 C11.0170000000001,32.557 9.42499999999995,33.3920000000001 8.05700000000002,32.673 C7.56600000000003,32.415 7.34300000000007,31.925 7.00299999999993,31.597 C6.67000000000007,32.3630000000001 5.99600000000009,32.796 5.08699999999999,33 C4.83200000000011,33 4.57600000000002,33 4.32099999999991,33 C3.57799999999997,32.88 2.8309999999999,32.1180000000001 2.69299999999998,31.317 C2.5619999999999,30.556 2.69299999999998,29.5549999999999 2.69299999999998,28.605 C2.69299999999998,26.057 2.69299999999998,22.873 2.69299999999998,20.47 C1.42200000000003,20.526 0.19900000000007,20.5359999999999 0.05899999999997,19.4880000000001 C0.05899999999997,16.5890000000001 0.05899999999997,13.6900000000001 0.05899999999997,10.7910000000001 C0.43599999999992,9.09199999999998 1.79299999999989,8.86300000000006 4.08200000000011,9.01499999999999 ZM20.269,27.249 C20.5840000000001,27.167 21.797,27.168 22.088,27.249 C22.2750000000001,27.301 22.5740000000001,27.649 22.807,27.903 C24.3710000000001,29.615 26.008,31.456 27.452,33 C26.6700000000001,33 25.8879999999999,33 25.106,33 C23.7850000000001,31.624 22.5429999999999,30.171 21.1310000000001,28.885 C20.3109999999999,29.8200000000001 19.3230000000001,30.898 18.4010000000001,31.878 C18.133,32.162 17.7249999999999,32.735 17.395,32.813 C16.683,32.98 16.0830000000001,32.692 15.24,32.813 C16.444,31.393 17.703,30.04 18.9760000000001,28.605 C19.26,28.284 19.873,27.352 20.269,27.249 Z "/></svg>