<?xml version="1.0" encoding="utf-8"?><!DOCTYPE svg PUBLIC "-//W3C//DTD SVG 1.1//EN" "http://www.w3.org/Graphics/SVG/1.1/DTD/svg11.dtd"><svg version="1.1" baseProfile="full" xmlns="http://www.w3.org/2000/svg" xmlns:xlink="http://www.w3.org/1999/xlink" xmlns:ev="http://www.w3.org/2001/xml-events"   height="48px"   width="162px" ><path fill="rgb( 255, 255, 255 )" d="M162,39.715 C162,39.715 160.347,39.715 160.347,39.715 C160.347,39.715 160.347,37.853 160.347,37.853 C160.347,37.328 160.075,37.066 159.533,37.066 C159.533,37.066 151.703,37.066 151.703,37.066 C151.703,37.066 151.703,37.063 151.703,37.063 C151.703,37.063 151.044,37.063 151.044,37.063 C150.536,37.063 150.283,36.806 150.283,36.291 C150.283,35.758 150.545,35.491 151.07,35.491 C151.07,35.491 151.97,35.491 151.97,35.491 C151.97,35.491 157.667,35.491 157.667,35.491 C157.667,35.491 158.567,35.491 158.567,35.491 C158.567,35.491 158.62,35.492 158.62,35.492 C158.62,35.492 159.507,35.492 159.507,35.492 C160.032,35.44 160.294,35.178 160.294,34.706 C160.294,34.163 159.988,33.892 159.375,33.892 C159.375,33.892 149.638,33.892 149.638,33.892 C149.638,33.892 149.638,33.898 149.638,33.898 C149.638,33.898 149.59,33.898 149.59,33.898 C149.59,33.898 149.59,37.492 149.59,37.492 C149.587,37.584 149.585,37.705 149.585,37.853 C149.585,37.853 149.585,39.715 149.585,39.715 C149.585,39.715 147.932,39.715 147.932,39.715 C147.932,39.715 147.932,32.319 147.932,32.319 C147.932,32.319 159.612,32.319 159.612,32.319 C160.276,32.319 160.841,32.55 161.304,33.014 C161.768,33.477 162,34.032 162,34.679 C162,35.291 161.799,35.824 161.396,36.279 C161.799,36.734 162,37.267 162,37.879 C162,37.879 162,39.715 162,39.715 ZM142.974,36.827 C142.974,36.827 137.277,36.827 137.277,36.827 C137.277,36.827 136.35,36.827 136.35,36.827 C135.843,36.827 135.589,36.574 135.589,36.067 C135.589,35.542 135.852,35.28 136.377,35.28 C136.377,35.28 137.277,35.28 137.277,35.28 C137.277,35.28 142.974,35.28 142.974,35.28 C142.974,35.28 143.874,35.28 143.874,35.28 C144.399,35.28 144.661,35.542 144.661,36.067 C144.661,36.574 144.408,36.827 143.9,36.827 C143.9,36.827 142.974,36.827 142.974,36.827 ZM147.339,38.952 C147.339,39.477 147.085,39.739 146.578,39.739 C146.578,39.739 135.527,39.739 135.527,39.739 C134.863,39.739 134.302,39.525 133.848,39.096 C133.393,38.668 133.165,38.13 133.165,37.483 C133.165,36.746 133.146,35.155 133.165,34.598 C133.165,34.598 133.165,34.52 133.165,34.52 C133.165,34.52 133.165,34.494 133.165,34.494 C133.148,33.882 133.371,33.37 133.834,32.959 C134.298,32.548 134.863,32.343 135.527,32.343 C135.527,32.343 146.578,32.343 146.578,32.343 C147.085,32.343 147.339,32.605 147.339,33.129 C147.339,33.654 147.068,33.917 146.525,33.917 C146.525,33.917 135.764,33.917 135.764,33.917 C135.169,33.917 134.871,34.135 134.871,34.572 C134.871,36.528 134.871,35.727 134.871,37.51 C134.871,37.947 135.169,38.165 135.764,38.165 C135.764,38.165 146.525,38.165 146.525,38.165 C147.068,38.165 147.339,38.428 147.339,38.952 ZM126.976,39.716 C126.888,39.716 126.802,39.711 126.718,39.7 C126.718,39.7 126.342,39.7 126.342,39.7 C126.342,39.7 124.919,39.7 124.919,39.7 C124.919,39.7 124.276,39.7 124.276,39.7 C124.276,39.7 124.261,39.7 124.261,39.7 C124.261,39.7 124.261,39.7 124.261,39.7 C123.525,39.695 122.878,39.323 122.503,38.761 C122.503,38.761 122.502,38.761 122.502,38.761 C122.502,38.761 122.493,38.747 122.493,38.747 C122.463,38.701 122.434,38.653 122.408,38.605 C122.408,38.605 118.635,32.348 118.635,32.348 C118.635,32.348 120.469,32.348 120.469,32.348 C120.469,32.348 123.829,37.9 123.829,37.9 C123.829,37.9 123.83,37.9 123.83,37.9 C123.919,38.036 124.074,38.126 124.252,38.126 C124.252,38.126 124.277,38.126 124.277,38.126 C124.277,38.126 124.277,38.127 124.277,38.127 C124.277,38.127 126.997,38.127 126.997,38.127 C126.997,38.127 126.997,38.125 126.997,38.125 C126.997,38.125 127.009,38.126 127.009,38.126 C127.201,38.126 127.367,38.02 127.451,37.865 C127.451,37.865 127.453,37.865 127.453,37.865 C127.453,37.865 130.793,32.348 130.793,32.348 C130.793,32.348 132.626,32.348 132.626,32.348 C132.626,32.348 128.845,38.619 128.845,38.619 C128.488,39.272 127.784,39.716 126.976,39.716 ZM113.576,36.782 C113.576,36.782 107.879,36.782 107.879,36.782 C107.879,36.782 106.953,36.782 106.953,36.782 C106.445,36.782 106.192,36.529 106.192,36.022 C106.192,35.497 106.454,35.235 106.979,35.235 C106.979,35.235 107.879,35.235 107.879,35.235 C107.879,35.235 113.576,35.235 113.576,35.235 C113.576,35.235 114.477,35.235 114.477,35.235 C115.001,35.235 115.264,35.497 115.264,36.022 C115.264,36.529 115.01,36.782 114.503,36.782 C114.503,36.782 113.576,36.782 113.576,36.782 ZM117.941,38.907 C117.941,39.431 117.687,39.694 117.18,39.694 C117.18,39.694 106.13,39.694 106.13,39.694 C105.465,39.694 104.905,39.479 104.45,39.051 C103.995,38.623 103.768,38.085 103.768,37.438 C103.768,36.701 103.749,35.11 103.768,34.553 C103.768,34.553 103.768,34.474 103.768,34.474 C103.768,34.474 103.768,34.448 103.768,34.448 C103.75,33.837 103.973,33.325 104.437,32.914 C104.901,32.503 105.465,32.298 106.13,32.298 C106.13,32.298 117.18,32.298 117.18,32.298 C117.687,32.298 117.941,32.56 117.941,33.085 C117.941,33.609 117.67,33.871 117.127,33.871 C117.127,33.871 106.366,33.871 106.366,33.871 C105.771,33.871 105.474,34.09 105.474,34.527 C105.474,36.483 105.474,35.682 105.474,37.465 C105.474,37.901 105.771,38.12 106.366,38.12 C106.366,38.12 117.127,38.12 117.127,38.12 C117.67,38.12 117.941,38.382 117.941,38.907 ZM102.629,39.715 C102.629,39.715 91.579,39.715 91.579,39.715 C90.914,39.715 90.354,39.483 89.899,39.02 C89.444,38.557 89.216,37.992 89.216,37.328 C89.216,37.328 89.216,32.319 89.216,32.319 C89.216,32.319 90.87,32.319 90.87,32.319 C90.87,32.319 90.87,37.354 90.87,37.354 C90.87,37.879 91.185,38.141 91.815,38.141 C91.815,38.141 102.576,38.141 102.576,38.141 C103.119,38.141 103.39,38.403 103.39,38.928 C103.39,39.453 103.136,39.715 102.629,39.715 ZM74.381,38.12 C75.214,40.099 77.172,41.489 79.455,41.491 C79.455,41.491 79.455,41.495 79.455,41.495 C79.455,41.495 87.979,41.495 87.979,41.495 C87.979,41.495 87.979,47.999 87.979,47.999 C87.979,47.999 74.381,47.999 74.381,47.999 C74.381,47.999 74.381,38.12 74.381,38.12 ZM79.417,32.653 C79.417,32.653 86.511,32.653 86.511,32.653 C86.511,32.653 87.979,31.191 87.979,31.191 C87.979,31.191 87.979,40.934 87.979,40.934 C87.979,40.934 86.373,39.329 86.373,39.329 C86.373,39.329 79.613,39.329 79.613,39.329 C79.329,39.34 76.272,38.968 76.272,35.989 C76.272,34.21 77.663,32.756 79.417,32.653 ZM79.224,30.486 C79.224,30.486 79.224,30.492 79.224,30.492 C77.04,30.583 75.186,31.946 74.381,33.858 C74.381,33.858 74.381,13.587 74.381,13.587 C74.381,13.587 87.979,0 87.979,0 C87.979,0 87.979,30.486 87.979,30.486 C87.979,30.486 79.459,30.486 79.459,30.486 C79.459,30.486 79.224,30.486 79.224,30.486 ZM71.261,34.679 C71.261,34.259 71.043,33.997 70.605,33.892 C70.605,33.892 61.497,33.892 61.497,33.892 C60.867,33.892 60.552,34.155 60.552,34.679 C60.552,34.679 60.552,39.715 60.552,39.715 C60.552,39.715 58.899,39.715 58.899,39.715 C58.899,39.715 58.899,34.679 58.899,34.679 C58.899,34.032 59.126,33.477 59.581,33.014 C60.036,32.55 60.596,32.319 61.261,32.319 C61.261,32.319 70.579,32.319 70.579,32.319 C71.226,32.319 71.782,32.55 72.246,33.014 C72.709,33.477 72.941,34.032 72.941,34.679 C72.941,34.679 72.941,39.715 72.941,39.715 C72.941,39.715 71.261,39.715 71.261,39.715 C71.261,39.715 71.261,34.679 71.261,34.679 ZM53.882,36.803 C53.882,36.803 48.185,36.803 48.185,36.803 C48.185,36.803 47.258,36.803 47.258,36.803 C46.751,36.803 46.497,36.55 46.497,36.043 C46.497,35.518 46.76,35.256 47.284,35.256 C47.284,35.256 48.185,35.256 48.185,35.256 C48.185,35.256 53.882,35.256 53.882,35.256 C53.882,35.256 54.782,35.256 54.782,35.256 C55.307,35.256 55.569,35.518 55.569,36.043 C55.569,36.55 55.316,36.803 54.808,36.803 C54.808,36.803 53.882,36.803 53.882,36.803 ZM58.246,38.928 C58.246,39.453 57.993,39.715 57.485,39.715 C57.485,39.715 46.435,39.715 46.435,39.715 C45.77,39.715 45.21,39.501 44.755,39.072 C44.3,38.644 44.073,38.106 44.073,37.459 C44.073,36.722 44.054,35.131 44.073,34.574 C44.073,34.574 44.073,34.496 44.073,34.496 C44.073,34.496 44.073,34.469 44.073,34.469 C44.055,33.857 44.279,33.346 44.742,32.935 C45.206,32.524 45.77,32.319 46.435,32.319 C46.435,32.319 57.485,32.319 57.485,32.319 C57.993,32.319 58.246,32.581 58.246,33.105 C58.246,33.63 57.975,33.892 57.433,33.892 C57.433,33.892 46.671,33.892 46.671,33.892 C46.076,33.892 45.779,34.111 45.779,34.548 C45.779,36.503 45.779,35.703 45.779,37.486 C45.779,37.922 46.076,38.141 46.671,38.141 C46.671,38.141 57.433,38.141 57.433,38.141 C57.975,38.141 58.246,38.403 58.246,38.928 ZM39.153,36.803 C39.153,36.803 33.456,36.803 33.456,36.803 C33.456,36.803 32.53,36.803 32.53,36.803 C32.022,36.803 31.769,36.55 31.769,36.043 C31.769,35.518 32.031,35.256 32.556,35.256 C32.556,35.256 33.456,35.256 33.456,35.256 C33.456,35.256 39.153,35.256 39.153,35.256 C39.153,35.256 40.053,35.256 40.053,35.256 C40.578,35.256 40.841,35.518 40.841,36.043 C40.841,36.55 40.587,36.803 40.079,36.803 C40.079,36.803 39.153,36.803 39.153,36.803 ZM43.518,38.928 C43.518,39.453 43.264,39.715 42.757,39.715 C42.757,39.715 31.706,39.715 31.706,39.715 C31.042,39.715 30.482,39.501 30.027,39.072 C29.572,38.644 29.344,38.106 29.344,37.459 C29.344,36.722 29.325,35.131 29.344,34.574 C29.344,34.574 29.344,34.496 29.344,34.496 C29.344,34.496 29.344,34.469 29.344,34.469 C29.327,33.857 29.55,33.346 30.014,32.935 C30.477,32.524 31.042,32.319 31.706,32.319 C31.706,32.319 42.757,32.319 42.757,32.319 C43.264,32.319 43.518,32.581 43.518,33.105 C43.518,33.63 43.247,33.892 42.704,33.892 C42.704,33.892 31.943,33.892 31.943,33.892 C31.348,33.892 31.05,34.111 31.05,34.548 C31.05,36.503 31.05,35.703 31.05,37.486 C31.05,37.922 31.348,38.141 31.943,38.141 C31.943,38.141 42.704,38.141 42.704,38.141 C43.247,38.141 43.518,38.403 43.518,38.928 ZM27.143,37.861 C27.143,37.336 26.872,37.074 26.329,37.074 C26.329,37.074 18.499,37.074 18.499,37.074 C18.499,37.074 18.499,37.072 18.499,37.072 C18.499,37.072 17.84,37.072 17.84,37.072 C17.332,37.072 17.079,36.814 17.079,36.299 C17.079,35.766 17.341,35.5 17.866,35.5 C17.866,35.5 18.766,35.5 18.766,35.5 C18.766,35.5 24.463,35.5 24.463,35.5 C24.463,35.5 25.364,35.5 25.364,35.5 C25.364,35.5 25.416,35.501 25.416,35.501 C25.416,35.501 26.303,35.501 26.303,35.501 C26.828,35.448 27.09,35.186 27.09,34.714 C27.09,34.172 26.784,33.901 26.172,33.901 C26.172,33.901 16.434,33.901 16.434,33.901 C16.434,33.901 16.434,33.906 16.434,33.906 C16.434,33.906 16.387,33.906 16.387,33.906 C16.387,33.906 16.387,37.5 16.387,37.5 C16.383,37.593 16.381,37.713 16.381,37.861 C16.381,37.861 16.381,39.723 16.381,39.723 C16.381,39.723 14.728,39.723 14.728,39.723 C14.728,39.723 14.728,32.327 14.728,32.327 C14.728,32.327 26.408,32.327 26.408,32.327 C27.073,32.327 27.637,32.559 28.101,33.022 C28.564,33.485 28.796,34.041 28.796,34.688 C28.796,35.299 28.595,35.833 28.193,36.287 C28.595,36.742 28.796,37.275 28.796,37.887 C28.796,37.887 28.796,39.723 28.796,39.723 C28.796,39.723 27.143,39.723 27.143,39.723 C27.143,39.723 27.143,37.861 27.143,37.861 ZM11.837,36.541 C11.837,36.541 4.69799999999999,36.541 4.69799999999999,36.541 C4.173,36.541 3.911,36.279 3.911,35.755 C3.911,35.23 4.16500000000001,34.967 4.672,34.967 C4.672,34.967 12.835,34.967 12.835,34.967 C13.395,34.967 13.736,35.195 13.859,35.65 C13.893,35.789 13.911,36.349 13.911,37.328 C13.911,37.992 13.679,38.557 13.215,39.02 C12.752,39.483 12.187,39.715 11.523,39.715 C11.523,39.715 3.596,39.715 3.596,39.715 C3.246,39.68 2.747,39.601 2.09999999999999,39.478 C1.66200000000001,39.339 1.277,39.077 0.94499999999999,38.692 C0.315,37.975 0,37.083 0,36.017 C0,34.95 0.315,34.059 0.94499999999999,33.341 C1.277,32.957 1.66200000000001,32.695 2.09999999999999,32.555 C2.09999999999999,32.555 3.596,32.319 3.596,32.319 C3.596,32.319 13.124,32.319 13.124,32.319 C13.631,32.319 13.885,32.581 13.885,33.105 C13.885,33.63 13.622,33.892 13.097,33.892 C13.097,33.892 3.83199999999999,33.892 3.83199999999999,33.892 C3.56999999999999,33.892 3.324,33.918 3.09699999999999,33.971 C2.17,34.181 1.706,34.872 1.706,36.043 C1.706,37.162 2.17,37.835 3.09699999999999,38.063 C3.324,38.115 3.56999999999999,38.141 3.83199999999999,38.141 C3.83199999999999,38.141 11.286,38.141 11.286,38.141 C11.899,38.141 12.205,37.87 12.205,37.328 C12.205,36.926 12.205,36.734 12.205,36.751 C12.17,36.611 12.047,36.541 11.837,36.541 Z "/></svg>