<?xml version="1.0" encoding="UTF-8" standalone="no"?>
<svg width="120px" height="120px" viewBox="0 0 120 120" version="1.1" xmlns="http://www.w3.org/2000/svg" xmlns:xlink="http://www.w3.org/1999/xlink" xmlns:sketch="http://www.bohemiancoding.com/sketch/ns">
    <!-- Generator: Sketch 3.1 (8751) - http://www.bohemiancoding.com/sketch -->
    <title>Векторный смарт-объект</title>
    <desc>Created with Sketch.</desc>
    <defs>
        <path id="path-1" d="M0,0 L120,0 L120,120 L0,120"></path>
        <path id="path-3" d="M0,0 L120,0 L120,120 L0,120 L0,0 Z"></path>
        <path id="path-5" d="M0,0 L120,0 L120,120 L0,120"></path>
    </defs>
    <g id="Page-1" stroke="none" stroke-width="1" fill="none" fill-rule="evenodd" sketch:type="MSPage">
        <g id="Векторный-смарт-объект" sketch:type="MSLayerGroup">
            <g id="Group-3">
                <mask id="mask-2" sketch:name="Clip 2" fill="white">
                    <use xlink:href="#path-1"></use>
                </mask>
                <g id="Clip-2"></g>
                <path d="M119.6201,53.3125 C116.2921,23.3235 90.8751,-0.0005 60.0001,-0.0005 C26.8621,-0.0005 0.0001,26.8625 0.0001,60.0005 C0.0001,90.8215 23.2451,116.2035 53.1591,119.6005 C55.4051,119.8555 57.6851,120.0005 60.0001,120.0005 C66.8871,120.0005 73.4961,118.8245 79.6561,116.6885 C97.4951,110.5025 111.5121,96.1505 117.2171,78.0935 L117.2181,78.0925 C119.0211,72.3835 120.0001,66.3065 120.0001,60.0005 C120.0001,57.7385 119.8641,55.5085 119.6201,53.3125" id="Fill-1" fill="#64C078" sketch:type="MSShapeGroup" mask="url(#mask-2)"></path>
            </g>
            <g id="Group-6">
                <mask id="mask-4" sketch:name="Clip 5" fill="white">
                    <use xlink:href="#path-3"></use>
                </mask>
                <g id="Clip-5"></g>
                <path d="M59.2285,94.2393 L31.7525,94.0743 L53.1595,119.6003 C55.4055,119.8553 57.6855,120.0003 59.9995,120.0003 C66.8875,120.0003 73.4965,118.8243 79.6565,116.6883 C97.4945,110.5033 111.5125,96.1503 117.2175,78.0933 L63.9895,31.5473 L59.2285,94.2393 Z" id="Fill-4" fill="#4DAB6B" sketch:type="MSShapeGroup" mask="url(#mask-4)"></path>
            </g>
            <g id="Group-9">
                <mask id="mask-6" sketch:name="Clip 8" fill="white">
                    <use xlink:href="#path-5"></use>
                </mask>
                <g id="Clip-8"></g>
                <path d="M119.6201,53.3125 L82.8831,23.6825 L83.1151,40.0525 L83.7831,48.8495 L117.2181,78.0925 C119.0211,72.3835 120.0001,66.3065 120.0001,60.0005 C120.0001,57.7385 119.8641,55.5085 119.6201,53.3125" id="Fill-7" fill="#4DAB6B" sketch:type="MSShapeGroup" mask="url(#mask-6)"></path>
            </g>
            <path d="M21.9482,75.3271 L38.5522,88.7521 C38.5522,88.7521 58.8092,97.6181 59.5162,90.9071 C60.2222,84.1951 62.9272,65.4371 62.2202,56.2531 C61.5132,47.0671 59.7462,38.5911 59.7462,38.5911 L42.6902,25.1151 C42.6902,25.1151 40.3172,33.2921 37.8452,33.9991 C35.3722,34.7031 41.7312,40.3561 37.8452,55.8991 C33.9592,71.4431 21.9482,75.3271 21.9482,75.3271" id="Fill-10" fill="#4DAB6B" sketch:type="MSShapeGroup"></path>
            <path d="M70.6499,72.0322 C70.5529,71.8482 70.4169,71.4692 70.3149,70.8442 C71.0529,70.0892 71.7379,69.1802 72.4069,68.0862 C72.6319,67.7152 72.8559,67.3642 73.0759,67.0182 C73.7759,65.9202 74.4949,64.7912 75.1499,63.3282 C75.9779,62.8192 76.6909,62.0812 77.1779,61.1872 C78.5229,58.7202 79.9389,53.6572 78.9849,50.9642 C78.6949,50.1362 78.1899,49.4442 77.5279,48.9272 C77.3119,44.4242 75.9999,40.4792 73.7179,37.4282 L73.9889,36.7412 L72.9319,35.6722 C72.4259,34.5482 71.5919,33.6232 70.5059,32.9422 C71.6599,29.7642 73.8269,27.6982 76.3419,26.7032 C77.2139,26.3192 78.6879,25.7352 80.7289,25.1722 C81.8519,24.8592 82.7259,24.2302 82.8199,23.6532 C83.3179,23.7532 84.6229,25.5492 83.9719,26.4872 C83.9589,26.4852 87.1779,26.3272 87.7199,28.4622 C87.8219,28.5642 87.4839,28.4772 87.0729,28.4242 C89.5119,30.5512 91.1459,34.1012 90.9599,39.1582 C91.4149,39.1452 92.0299,39.2402 92.2319,39.8172 C92.5709,40.7722 92.0329,43.7652 90.9929,45.6722 C90.7079,46.1942 90.1609,46.5642 89.7039,46.5802 C89.0369,48.4252 88.2039,49.5182 87.3379,50.9382 C86.6699,52.0342 85.9969,52.8062 85.2229,53.3432 C85.2729,55.2192 85.6929,57.3522 87.2689,57.8252 C90.2059,58.7062 98.2409,62.1892 99.5669,66.5792 C100.3619,69.2082 100.3619,71.3182 100.3619,71.3182 C100.3619,73.2152 98.8239,75.1472 96.9289,75.1472 L79.3029,75.1472 C76.4539,73.9202 73.4499,72.8802 70.6499,72.0322" id="Fill-12" fill="#FFFFFF" sketch:type="MSShapeGroup"></path>
            <path d="M21.3965,68.04 C22.3595,64.258 28.4315,61.79 33.1875,59.861 C34.7025,59.248 35.0745,56.802 35.0895,54.73 C34.4055,54.202 33.7965,53.436 33.1925,52.442 C32.3215,51.018 31.4675,49.905 30.7845,48.055 C30.3505,47.994 29.8575,47.628 29.5945,47.145 C28.5545,45.24 28.0165,42.238 28.3545,41.284 C28.5405,40.759 29.0645,40.632 29.5015,40.623 C29.2495,33.788 32.3215,29.704 36.2125,28.163 C37.0815,27.78 38.5545,27.197 40.5965,26.633 C41.7185,26.319 42.5935,25.69 42.6905,25.115 C43.1875,25.216 44.4905,27.011 43.8415,27.948 C43.8275,27.945 47.0475,27.789 47.5895,29.923 C47.6905,30.023 47.3515,29.939 46.9415,29.884 C48.2595,31.033 49.3275,32.612 50.0155,34.605 C46.0885,37.813 43.7675,42.888 43.4995,49.058 C42.9225,49.557 42.4805,50.2 42.2095,50.966 C41.2555,53.668 42.6725,58.735 44.0205,61.206 C44.4725,62.036 45.1245,62.739 45.8815,63.247 C46.5565,64.748 47.2935,65.905 48.0135,67.028 C48.2435,67.39 48.4785,67.759 48.7105,68.141 C49.3325,69.16 49.9475,70.01 50.5915,70.719 C50.4765,71.958 50.2395,72.645 50.0945,72.911 C48.9795,73.355 47.6425,73.859 46.2305,74.368 C44.3765,75.037 42.4595,75.732 40.6065,76.487 L23.9995,76.487 C22.1035,76.487 20.5665,74.614 20.5665,72.72 C20.5665,71.86 20.6845,70.839 21.3965,68.04" id="Fill-14" fill="#FFFFFF" sketch:type="MSShapeGroup"></path>
            <path d="M32.4165,86.3994 C33.6535,81.5484 45.4665,78.3814 51.5655,75.9094 C51.8765,75.7844 52.1385,75.5794 52.3785,75.3444 C52.4195,75.5274 52.4665,75.7024 52.5215,75.8504 L56.1245,91.3524 C56.3585,91.9814 56.6405,91.9554 56.7495,91.2934 L58.3985,84.8854 C58.6455,83.4554 58.2115,83.2954 57.7375,82.8224 L57.4735,82.6264 C56.9995,82.1524 56.9995,81.3774 57.4735,80.9034 L58.9565,78.4504 C59.4305,77.9754 59.3785,77.2614 58.8415,76.8614 L53.5955,72.9604 C53.8835,71.8224 53.9985,70.5304 54.0065,69.3274 C53.1295,68.6494 52.3475,67.6694 51.5735,66.3934 C50.4565,64.5654 49.3645,63.1384 48.4865,60.7664 C47.9275,60.6864 47.2975,60.2194 46.9585,59.5994 C45.6265,57.1534 44.9355,53.3074 45.3685,52.0824 C45.6085,51.4064 46.2815,51.2454 46.8405,51.2334 C46.5165,42.4694 50.4555,37.2314 55.4465,35.2544 C56.5625,34.7624 58.4535,34.0144 61.0705,33.2924 C62.5105,32.8894 63.6305,32.0854 63.7535,31.3454 C64.3935,31.4754 66.0645,33.7764 65.2325,34.9764 C65.2125,34.9754 69.3425,34.7774 70.0395,37.5114 C70.1685,37.6424 69.7335,37.5324 69.2085,37.4614 C72.3375,40.1914 74.4325,44.7444 74.1935,51.2274 C74.7775,51.2114 75.5645,51.3344 75.8255,52.0754 C76.2585,53.3014 75.5695,57.1394 74.2365,59.5854 C73.8705,60.2564 73.1695,60.7274 72.5815,60.7474 C71.7285,63.1164 70.6605,64.5164 69.5485,66.3394 C68.6915,67.7434 67.8275,68.7344 66.8335,69.4224 C66.8735,70.9014 67.0955,72.4964 67.7265,73.6534 L62.0885,76.9714 C61.5105,77.3104 61.4255,77.9754 61.8995,78.4504 L63.3835,80.8324 C63.8565,81.3054 63.8565,82.0814 63.3835,82.5544 L63.1185,82.8224 C62.6455,83.2954 62.3475,83.4304 62.4585,84.8854 L64.1645,91.4784 C64.2745,92.1414 64.5835,92.1774 64.8475,91.5634 L69.3705,75.3334 C69.3955,75.2764 69.4055,75.2154 69.4245,75.1564 C69.4385,75.1604 69.4465,75.1694 69.4585,75.1724 C73.2255,76.3024 86.9685,80.7664 88.6695,86.3994 C89.6885,89.7704 89.6885,92.0774 89.6885,92.0774 C89.6885,94.5084 87.7165,96.5874 85.2865,96.5874 L35.7535,96.5874 C33.3235,96.5874 31.3525,94.5084 31.3525,92.0774 C31.3525,90.9764 31.5025,89.9864 32.4165,86.3994" id="Fill-16" fill="#FFFFFF" sketch:type="MSShapeGroup"></path>
        </g>
    </g>
</svg>