<?xml version="1.0" encoding="UTF-8" standalone="no"?>
<svg width="120px" height="120px" viewBox="0 0 120 120" version="1.1" xmlns="http://www.w3.org/2000/svg" xmlns:xlink="http://www.w3.org/1999/xlink" xmlns:sketch="http://www.bohemiancoding.com/sketch/ns">
    <!-- Generator: Sketch 3.1 (8751) - http://www.bohemiancoding.com/sketch -->
    <title>Векторный смарт-объект</title>
    <desc>Created with Sketch.</desc>
    <defs></defs>
    <g id="Page-1" stroke="none" stroke-width="1" fill="none" fill-rule="evenodd" sketch:type="MSPage">
        <g id="Векторный-смарт-объект" sketch:type="MSLayerGroup">
            <path d="M120,60 C120,93.137 93.137,120 60,120 C26.863,120 0,93.137 0,60 C0,26.863 26.863,0 60,0 C93.137,0 120,26.863 120,60" id="Fill-1" fill="#64C078" sketch:type="MSShapeGroup"></path>
            <path d="M120,60 C120,59.605 119.978,59.216 119.972,58.823 L93.126,32.5 L27.04,87.406 L60.27,119.993 C93.282,119.847 120,93.047 120,60" id="Fill-3" fill="#4DAB6B" sketch:type="MSShapeGroup"></path>
            <path d="M91.7979,84.9326 C91.7979,85.5946 91.2609,86.1326 90.5979,86.1326 L29.6599,86.1326 C28.9999,86.1326 28.4609,85.5946 28.4609,84.9326 L28.4609,35.0676 C28.4609,34.4056 28.9999,33.8676 29.6599,33.8676 L90.5979,33.8676 C91.2609,33.8676 91.7979,34.4056 91.7979,35.0676 L91.7979,84.9326 Z M90.5979,31.4676 L29.6599,31.4676 C27.6729,31.4676 26.0599,33.0786 26.0599,35.0676 L26.0599,84.9326 C26.0599,86.9216 27.6729,88.5326 29.6599,88.5326 L90.5979,88.5326 C92.5859,88.5326 94.1969,86.9216 94.1969,84.9326 L94.1969,35.0676 C94.1969,33.0786 92.5859,31.4676 90.5979,31.4676 L90.5979,31.4676 Z" id="Fill-5" fill="#FFFFFF" sketch:type="MSShapeGroup"></path>
            <path d="M90.5977,33.8672 L29.6597,33.8672 C28.9997,33.8672 28.4607,34.4052 28.4607,35.0672 L28.4607,84.9322 C28.4607,85.5952 28.9997,86.1332 29.6597,86.1332 L90.5977,86.1332 C91.2607,86.1332 91.7977,85.5952 91.7977,84.9322 L91.7977,35.0672 C91.7977,34.4052 91.2607,33.8672 90.5977,33.8672" id="Fill-7" fill="#4DAB6B" sketch:type="MSShapeGroup"></path>
            <path d="M94.1973,35.0674 C94.1973,33.0784 92.5863,31.4674 90.5973,31.4674 L29.6603,31.4674 C27.6733,31.4674 26.0593,33.0784 26.0593,35.0674 L26.0593,44.6564 L94.1973,44.6564 L94.1973,35.0674 Z" id="Fill-9" fill="#FFFFFF" sketch:type="MSShapeGroup"></path>
            <path d="M89.5264,38.4102 C89.5264,39.5702 88.5864,40.5112 87.4254,40.5112 C86.2654,40.5112 85.3254,39.5702 85.3254,38.4102 C85.3254,37.2502 86.2654,36.3102 87.4254,36.3102 C88.5864,36.3102 89.5264,37.2502 89.5264,38.4102" id="Fill-11" fill="#4DAB6B" sketch:type="MSShapeGroup"></path>
            <path d="M82.3252,38.4102 C82.3252,39.5702 81.3862,40.5112 80.2252,40.5112 C79.0652,40.5112 78.1252,39.5702 78.1252,38.4102 C78.1252,37.2502 79.0652,36.3102 80.2252,36.3102 C81.3862,36.3102 82.3252,37.2502 82.3252,38.4102" id="Fill-13" fill="#4DAB6B" sketch:type="MSShapeGroup"></path>
            <path d="M75.125,38.4102 C75.125,39.5702 74.186,40.5112 73.026,40.5112 C71.865,40.5112 70.926,39.5702 70.926,38.4102 C70.926,37.2502 71.865,36.3102 73.026,36.3102 C74.186,36.3102 75.125,37.2502 75.125,38.4102" id="Fill-15" fill="#4DAB6B" sketch:type="MSShapeGroup"></path>
            <path d="M60,68.4531 L54.722,71.2271 C54.594,71.2941 54.437,71.2861 54.313,71.1981 C54.191,71.1091 54.137,70.9611 54.16,70.8221 L55.169,64.9421 L50.898,60.7791 C50.797,60.6811 50.754,60.5281 50.801,60.3831 C50.848,60.2391 50.973,60.1411 51.113,60.1231 L57.015,59.2631 L59.654,53.9171 C59.716,53.7881 59.848,53.7011 60,53.7011 C60.151,53.7011 60.282,53.7881 60.347,53.9171 L62.984,59.2631 L68.888,60.1231 C69.028,60.1411 69.152,60.2401 69.199,60.3831 C69.246,60.5281 69.204,60.6811 69.102,60.7791 L64.83,64.9421 L65.838,70.8221 C65.861,70.9611 65.809,71.1091 65.685,71.1981 C65.563,71.2861 65.405,71.2941 65.278,71.2271 L60,68.4531 Z" id="Fill-17" fill="#FFFFFF" sketch:type="MSShapeGroup"></path>
            <path d="M77.3857,74.1572 L73.4257,76.2382 C73.3307,76.2892 73.2117,76.2832 73.1207,76.2182 C73.0277,76.1492 72.9867,76.0392 73.0047,75.9342 L73.7617,71.5252 L70.5587,68.4032 C70.4817,68.3282 70.4487,68.2152 70.4847,68.1052 C70.5197,67.9982 70.6137,67.9252 70.7187,67.9102 L75.1457,67.2652 L77.1247,63.2552 C77.1717,63.1592 77.2697,63.0942 77.3857,63.0942 C77.4987,63.0942 77.5977,63.1592 77.6447,63.2552 L79.6227,67.2652 L84.0487,67.9102 C84.1557,67.9252 84.2487,67.9982 84.2827,68.1052 C84.3197,68.2152 84.2867,68.3282 84.2097,68.4032 L81.0077,71.5252 L81.7627,75.9342 C81.7817,76.0392 81.7407,76.1492 81.6487,76.2182 C81.5557,76.2832 81.4377,76.2892 81.3437,76.2382 L77.3857,74.1572 Z" id="Fill-19" fill="#FFFFFF" sketch:type="MSShapeGroup"></path>
            <path d="M42.6152,74.1572 L38.6562,76.2382 C38.5622,76.2892 38.4432,76.2832 38.3512,76.2182 C38.2592,76.1492 38.2192,76.0392 38.2352,75.9342 L38.9932,71.5252 L35.7892,68.4032 C35.7142,68.3282 35.6802,68.2152 35.7162,68.1052 C35.7512,67.9982 35.8442,67.9252 35.9492,67.9102 L40.3762,67.2652 L42.3562,63.2552 C42.4032,63.1592 42.5012,63.0942 42.6152,63.0942 C42.7282,63.0942 42.8282,63.1592 42.8752,63.2552 L44.8552,67.2652 L49.2812,67.9102 C49.3862,67.9252 49.4802,67.9982 49.5142,68.1052 C49.5492,68.2152 49.5192,68.3282 49.4412,68.4032 L46.2382,71.5252 L46.9942,75.9342 C47.0112,76.0392 46.9702,76.1492 46.8802,76.2182 C46.7872,76.2832 46.6692,76.2892 46.5752,76.2382 L42.6152,74.1572 Z" id="Fill-21" fill="#FFFFFF" sketch:type="MSShapeGroup"></path>
        </g>
    </g>
</svg>