<?xml version="1.0" encoding="UTF-8" standalone="no"?>
<svg width="162px" height="92px" viewBox="0 0 162 92" version="1.1" xmlns="http://www.w3.org/2000/svg" xmlns:xlink="http://www.w3.org/1999/xlink" xmlns:sketch="http://www.bohemiancoding.com/sketch/ns">
    <!-- Generator: Sketch 3.1 (8751) - http://www.bohemiancoding.com/sketch -->
    <title>Векторный смарт-объект</title>
    <desc>Created with Sketch.</desc>
    <defs>
        <path id="path-1" d="M0,0.038 L161.884,0.038 L161.884,92 L0,92 L0,0.038 Z"></path>
        <path id="path-3" d="M0,0.038 L161.884,0.038 L161.884,92 L0,92 L0,0.038 Z"></path>
    </defs>
    <g id="Page-1" stroke="none" stroke-width="1" fill="none" fill-rule="evenodd" sketch:type="MSPage">
        <g id="Векторный-смарт-объект" sketch:type="MSLayerGroup">
            <path d="M147.779,49.292 L14.105,49.292 L14.105,42.746 L147.779,42.746 L147.779,49.292 Z" id="Fill-1" fill="#5D6D7E" sketch:type="MSShapeGroup"></path>
            <g id="Group-55">
                <g id="Group-4">
                    <mask id="mask-2" sketch:name="Clip 3" fill="white">
                        <use xlink:href="#path-1"></use>
                    </mask>
                    <g id="Clip-3"></g>
                    <path d="M155.6802,40.8848 C155.6802,41.9128 154.8392,42.7458 153.8192,42.7458 L8.0652,42.7458 C7.0442,42.7458 6.2032,41.9128 6.2032,40.8848 L6.2032,1.9078 C6.2032,0.8788 7.0442,0.0378 8.0652,0.0378 L153.8192,0.0378 C154.8392,0.0378 155.6802,0.8788 155.6802,1.9078 L155.6802,40.8848 Z" id="Fill-2" fill="#AAB5BD" sketch:type="MSShapeGroup" mask="url(#mask-2)"></path>
                </g>
                <mask id="mask-4" sketch:name="Clip 6" fill="white">
                    <use xlink:href="#path-3"></use>
                </mask>
                <g id="Clip-6"></g>
                <path d="M10.554,4.389 L151.329,4.389 L151.329,38.403 L10.554,38.403 L10.554,4.389 Z" id="Fill-5" fill="#FFFFFF" sketch:type="MSShapeGroup" mask="url(#mask-4)"></path>
                <path d="M141.8687,21.3838 C141.8687,23.5548 140.1137,25.3098 137.9507,25.3098 C135.7877,25.3098 134.0327,23.5548 134.0327,21.3838 C134.0327,19.2288 135.7877,17.4738 137.9507,17.4738 C140.1137,17.4738 141.8687,19.2288 141.8687,21.3838" id="Fill-7" fill="#5D6D7E" sketch:type="MSShapeGroup" mask="url(#mask-4)"></path>
                <path d="M28.815,16.396 L25.378,16.396 L25.378,12.959 L28.815,12.959 L28.815,16.396 Z" id="Fill-8" fill="#5D6D7E" sketch:type="MSShapeGroup" mask="url(#mask-4)"></path>
                <path d="M39.443,16.396 L35.998,16.396 L35.998,12.959 L39.443,12.959 L39.443,16.396 Z" id="Fill-9" fill="#5D6D7E" sketch:type="MSShapeGroup" mask="url(#mask-4)"></path>
                <path d="M50.062,16.396 L46.617,16.396 L46.617,12.959 L50.062,12.959 L50.062,16.396 Z" id="Fill-10" fill="#5D6D7E" sketch:type="MSShapeGroup" mask="url(#mask-4)"></path>
                <path d="M60.682,16.396 L57.237,16.396 L57.237,12.959 L60.682,12.959 L60.682,16.396 Z" id="Fill-11" fill="#5D6D7E" sketch:type="MSShapeGroup" mask="url(#mask-4)"></path>
                <path d="M71.293,16.396 L67.864,16.396 L67.864,12.959 L71.293,12.959 L71.293,16.396 Z" id="Fill-12" fill="#5D6D7E" sketch:type="MSShapeGroup" mask="url(#mask-4)"></path>
                <path d="M28.815,29.832 L25.378,29.832 L25.378,26.396 L28.815,26.396 L28.815,29.832 Z" id="Fill-13" fill="#5D6D7E" sketch:type="MSShapeGroup" mask="url(#mask-4)"></path>
                <path d="M39.443,29.832 L35.998,29.832 L35.998,26.396 L39.443,26.396 L39.443,29.832 Z" id="Fill-14" fill="#5D6D7E" sketch:type="MSShapeGroup" mask="url(#mask-4)"></path>
                <path d="M50.062,29.832 L46.617,29.832 L46.617,26.396 L50.062,26.396 L50.062,29.832 Z" id="Fill-15" fill="#5D6D7E" sketch:type="MSShapeGroup" mask="url(#mask-4)"></path>
                <path d="M60.682,29.832 L57.237,29.832 L57.237,26.396 L60.682,26.396 L60.682,29.832 Z" id="Fill-16" fill="#5D6D7E" sketch:type="MSShapeGroup" mask="url(#mask-4)"></path>
                <path d="M71.293,29.832 L67.864,29.832 L67.864,26.396 L71.293,26.396 L71.293,29.832 Z" id="Fill-17" fill="#5D6D7E" sketch:type="MSShapeGroup" mask="url(#mask-4)"></path>
                <path d="M33.973,23.114 L30.536,23.114 L30.536,19.67 L33.973,19.67 L33.973,23.114 Z" id="Fill-18" fill="#5D6D7E" sketch:type="MSShapeGroup" mask="url(#mask-4)"></path>
                <path d="M44.601,23.114 L41.148,23.114 L41.148,19.67 L44.601,19.67 L44.601,23.114 Z" id="Fill-19" fill="#5D6D7E" sketch:type="MSShapeGroup" mask="url(#mask-4)"></path>
                <path d="M55.213,23.114 L51.768,23.114 L51.768,19.67 L55.213,19.67 L55.213,23.114 Z" id="Fill-20" fill="#5D6D7E" sketch:type="MSShapeGroup" mask="url(#mask-4)"></path>
                <path d="M65.824,23.114 L62.396,23.114 L62.396,19.67 L65.824,19.67 L65.824,23.114 Z" id="Fill-21" fill="#5D6D7E" sketch:type="MSShapeGroup" mask="url(#mask-4)"></path>
                <path d="M76.452,23.114 L73.008,23.114 L73.008,19.67 L76.452,19.67 L76.452,23.114 Z" id="Fill-22" fill="#5D6D7E" sketch:type="MSShapeGroup" mask="url(#mask-4)"></path>
                <path d="M119.944,23.114 L90.542,23.114 L90.542,19.67 L119.944,19.67 L119.944,23.114 Z" id="Fill-23" fill="#5D6D7E" sketch:type="MSShapeGroup" mask="url(#mask-4)"></path>
                <path d="M161.884,36.909 L155.68,36.909 L155.68,5.882 L161.884,5.882 L161.884,36.909 Z" id="Fill-24" fill="#5D6D7E" sketch:type="MSShapeGroup" mask="url(#mask-4)"></path>
                <path d="M159.7617,8.9521 C159.7617,9.4911 159.3207,9.9311 158.7817,9.9311 C158.2427,9.9311 157.7947,9.4911 157.7947,8.9521 C157.7947,8.4131 158.2427,7.9731 158.7817,7.9731 C159.3207,7.9731 159.7617,8.4131 159.7617,8.9521" id="Fill-25" fill="#F7F9FB" sketch:type="MSShapeGroup" mask="url(#mask-4)"></path>
                <path d="M159.7617,33.8325 C159.7617,34.3715 159.3207,34.8115 158.7817,34.8115 C158.2427,34.8115 157.7947,34.3715 157.7947,33.8325 C157.7947,33.2925 158.2427,32.8535 158.7817,32.8535 C159.3207,32.8535 159.7617,33.2925 159.7617,33.8325" id="Fill-26" fill="#F7F9FB" sketch:type="MSShapeGroup" mask="url(#mask-4)"></path>
                <path d="M6.204,36.909 L0,36.909 L0,5.882 L6.204,5.882 L6.204,36.909 Z" id="Fill-27" fill="#5D6D7E" sketch:type="MSShapeGroup" mask="url(#mask-4)"></path>
                <path d="M4.0894,8.9521 C4.0894,9.4911 3.6404,9.9311 3.1024,9.9311 C2.5624,9.9311 2.1224,9.4911 2.1224,8.9521 C2.1224,8.4131 2.5624,7.9731 3.1024,7.9731 C3.6404,7.9731 4.0894,8.4131 4.0894,8.9521" id="Fill-28" fill="#F7F9FB" sketch:type="MSShapeGroup" mask="url(#mask-4)"></path>
                <path d="M4.0894,33.8325 C4.0894,34.3715 3.6404,34.8115 3.1024,34.8115 C2.5624,34.8115 2.1224,34.3715 2.1224,33.8325 C2.1224,33.2925 2.5624,32.8535 3.1024,32.8535 C3.6404,32.8535 4.0894,33.2925 4.0894,33.8325" id="Fill-29" fill="#F7F9FB" sketch:type="MSShapeGroup" mask="url(#mask-4)"></path>
                <path d="M155.6802,90.1387 C155.6802,91.1597 154.8392,91.9997 153.8192,91.9997 L8.0652,91.9997 C7.0442,91.9997 6.2032,91.1597 6.2032,90.1387 L6.2032,51.1617 C6.2032,50.1337 7.0442,49.2927 8.0652,49.2927 L153.8192,49.2927 C154.8392,49.2927 155.6802,50.1337 155.6802,51.1617 L155.6802,90.1387 Z" id="Fill-30" fill="#AAB5BD" sketch:type="MSShapeGroup" mask="url(#mask-4)"></path>
                <path d="M10.554,53.635 L151.329,53.635 L151.329,87.649 L10.554,87.649 L10.554,53.635 Z" id="Fill-31" fill="#FFFFFF" sketch:type="MSShapeGroup" mask="url(#mask-4)"></path>
                <path d="M141.8687,70.6465 C141.8687,72.8015 140.1137,74.5565 137.9507,74.5565 C135.7877,74.5565 134.0327,72.8015 134.0327,70.6465 C134.0327,68.4825 135.7877,66.7365 137.9507,66.7365 C140.1137,66.7365 141.8687,68.4825 141.8687,70.6465" id="Fill-32" fill="#5D6D7E" sketch:type="MSShapeGroup" mask="url(#mask-4)"></path>
                <path d="M28.815,65.65 L25.378,65.65 L25.378,62.214 L28.815,62.214 L28.815,65.65 Z" id="Fill-33" fill="#5D6D7E" sketch:type="MSShapeGroup" mask="url(#mask-4)"></path>
                <path d="M39.443,65.65 L35.998,65.65 L35.998,62.214 L39.443,62.214 L39.443,65.65 Z" id="Fill-34" fill="#5D6D7E" sketch:type="MSShapeGroup" mask="url(#mask-4)"></path>
                <path d="M50.062,65.65 L46.617,65.65 L46.617,62.214 L50.062,62.214 L50.062,65.65 Z" id="Fill-35" fill="#5D6D7E" sketch:type="MSShapeGroup" mask="url(#mask-4)"></path>
                <path d="M60.682,65.65 L57.237,65.65 L57.237,62.214 L60.682,62.214 L60.682,65.65 Z" id="Fill-36" fill="#5D6D7E" sketch:type="MSShapeGroup" mask="url(#mask-4)"></path>
                <path d="M71.293,65.65 L67.864,65.65 L67.864,62.214 L71.293,62.214 L71.293,65.65 Z" id="Fill-37" fill="#5D6D7E" sketch:type="MSShapeGroup" mask="url(#mask-4)"></path>
                <path d="M28.815,79.078 L25.378,79.078 L25.378,75.634 L28.815,75.634 L28.815,79.078 Z" id="Fill-38" fill="#5D6D7E" sketch:type="MSShapeGroup" mask="url(#mask-4)"></path>
                <path d="M39.443,79.078 L35.998,79.078 L35.998,75.634 L39.443,75.634 L39.443,79.078 Z" id="Fill-39" fill="#5D6D7E" sketch:type="MSShapeGroup" mask="url(#mask-4)"></path>
                <path d="M50.062,79.078 L46.617,79.078 L46.617,75.634 L50.062,75.634 L50.062,79.078 Z" id="Fill-40" fill="#5D6D7E" sketch:type="MSShapeGroup" mask="url(#mask-4)"></path>
                <path d="M60.682,79.078 L57.237,79.078 L57.237,75.634 L60.682,75.634 L60.682,79.078 Z" id="Fill-41" fill="#5D6D7E" sketch:type="MSShapeGroup" mask="url(#mask-4)"></path>
                <path d="M71.293,79.078 L67.864,79.078 L67.864,75.634 L71.293,75.634 L71.293,79.078 Z" id="Fill-42" fill="#5D6D7E" sketch:type="MSShapeGroup" mask="url(#mask-4)"></path>
                <path d="M33.973,72.36 L30.536,72.36 L30.536,68.923 L33.973,68.923 L33.973,72.36 Z" id="Fill-43" fill="#5D6D7E" sketch:type="MSShapeGroup" mask="url(#mask-4)"></path>
                <path d="M44.601,72.36 L41.148,72.36 L41.148,68.923 L44.601,68.923 L44.601,72.36 Z" id="Fill-44" fill="#5D6D7E" sketch:type="MSShapeGroup" mask="url(#mask-4)"></path>
                <path d="M55.213,72.36 L51.768,72.36 L51.768,68.923 L55.213,68.923 L55.213,72.36 Z" id="Fill-45" fill="#5D6D7E" sketch:type="MSShapeGroup" mask="url(#mask-4)"></path>
                <path d="M65.824,72.36 L62.396,72.36 L62.396,68.923 L65.824,68.923 L65.824,72.36 Z" id="Fill-46" fill="#5D6D7E" sketch:type="MSShapeGroup" mask="url(#mask-4)"></path>
                <path d="M76.452,72.36 L73.008,72.36 L73.008,68.923 L76.452,68.923 L76.452,72.36 Z" id="Fill-47" fill="#5D6D7E" sketch:type="MSShapeGroup" mask="url(#mask-4)"></path>
                <path d="M119.944,72.36 L90.542,72.36 L90.542,68.923 L119.944,68.923 L119.944,72.36 Z" id="Fill-48" fill="#5D6D7E" sketch:type="MSShapeGroup" mask="url(#mask-4)"></path>
                <path d="M161.884,86.164 L155.68,86.164 L155.68,55.129 L161.884,55.129 L161.884,86.164 Z" id="Fill-49" fill="#5D6D7E" sketch:type="MSShapeGroup" mask="url(#mask-4)"></path>
                <path d="M159.7617,58.2144 C159.7617,58.7534 159.3207,59.1854 158.7817,59.1854 C158.2427,59.1854 157.7947,58.7534 157.7947,58.2144 C157.7947,57.6594 158.2427,57.2264 158.7817,57.2264 C159.3207,57.2264 159.7617,57.6594 159.7617,58.2144" id="Fill-50" fill="#F7F9FB" sketch:type="MSShapeGroup" mask="url(#mask-4)"></path>
                <path d="M159.7617,83.0864 C159.7617,83.6254 159.3207,84.0654 158.7817,84.0654 C158.2427,84.0654 157.7947,83.6254 157.7947,83.0864 C157.7947,82.5474 158.2427,82.1074 158.7817,82.1074 C159.3207,82.1074 159.7617,82.5474 159.7617,83.0864" id="Fill-51" fill="#F7F9FB" sketch:type="MSShapeGroup" mask="url(#mask-4)"></path>
                <path d="M6.204,86.164 L0,86.164 L0,55.129 L6.204,55.129 L6.204,86.164 Z" id="Fill-52" fill="#5D6D7E" sketch:type="MSShapeGroup" mask="url(#mask-4)"></path>
                <path d="M4.0894,58.2144 C4.0894,58.7534 3.6404,59.1854 3.1024,59.1854 C2.5624,59.1854 2.1224,58.7534 2.1224,58.2144 C2.1224,57.6594 2.5624,57.2264 3.1024,57.2264 C3.6404,57.2264 4.0894,57.6594 4.0894,58.2144" id="Fill-53" fill="#F7F9FB" sketch:type="MSShapeGroup" mask="url(#mask-4)"></path>
                <path d="M4.0894,83.0864 C4.0894,83.6254 3.6404,84.0654 3.1024,84.0654 C2.5624,84.0654 2.1224,83.6254 2.1224,83.0864 C2.1224,82.5474 2.5624,82.1074 3.1024,82.1074 C3.6404,82.1074 4.0894,82.5474 4.0894,83.0864" id="Fill-54" fill="#F7F9FB" sketch:type="MSShapeGroup" mask="url(#mask-4)"></path>
            </g>
        </g>
    </g>
</svg>