<?xml version="1.0" encoding="utf-8"?><!DOCTYPE svg PUBLIC "-//W3C//DTD SVG 1.1//EN" "http://www.w3.org/Graphics/SVG/1.1/DTD/svg11.dtd"><svg version="1.1" baseProfile="full" xmlns="http://www.w3.org/2000/svg" xmlns:xlink="http://www.w3.org/1999/xlink" xmlns:ev="http://www.w3.org/2001/xml-events"   height="34px"   width="34px" ><path fill="rgb( 166, 38, 124 )" d="M16.212,0 C16.946,0 17.681,0 18.415,0 C20.178,0.56700000000001 19.48,2.75799999999998 20.035,3.89400000000001 C20.357,4.55399999999997 21.08,4.77100000000002 21.785,5.06200000000001 C22.515,5.36500000000001 23.024,5.81999999999999 23.923,5.77600000000001 C25.433,5.70299999999997 26.006,3.76100000000002 27.552,3.89400000000001 C28.224,3.952 28.551,4.50599999999997 28.977,4.93299999999999 C29.413,5.36900000000003 29.96,5.75 30.014,6.36099999999999 C30.147,7.88200000000001 28.287,8.452 28.135,9.86500000000001 C28.0309999999999,10.829 28.54,11.454 28.848,12.202 C29.115,12.852 29.4589999999999,13.693 30.079,13.954 C31.386,14.506 33.49,13.749 33.902,15.577 C33.902,16.269 33.902,16.961 33.902,17.654 C33.499,19.622 30.361,18.572 29.366,19.861 C29.04,20.282 28.919,20.898 28.653,21.548 C28.422,22.114 28.053,22.6079999999999 28.135,23.365 C28.284,24.7430000000001 30.088,25.352 30.014,26.8049999999999 C29.98,27.468 29.455,27.885 29.042,28.298 C28.635,28.705 28.1369999999999,29.273 27.616,29.337 C26.126,29.519 25.375,27.602 24.053,27.454 C23.1,27.348 22.496,27.876 21.785,28.168 C21.1130000000001,28.444 20.349,28.694 20.035,29.337 C19.423,30.5890000000001 20.16,32.73 18.415,33.231 C17.681,33.231 16.946,33.231 16.212,33.231 C14.5170000000001,32.744 15.123,30.634 14.657,29.466 C14.3819999999999,28.777 13.635,28.462 12.907,28.168 C12.15,27.862 11.575,27.3819999999999 10.64,27.454 C9.99000000000001,27.505 9.62,27.965 9.08399999999995,28.3630000000001 C8.36800000000005,28.896 7.79300000000001,29.549 6.62199999999996,29.1420000000001 C6.13400000000001,28.972 5.76199999999994,28.543 5.39099999999996,28.168 C5.04499999999996,27.819 4.51599999999996,27.296 4.48400000000004,26.87 C4.43600000000004,26.232 5.04499999999996,25.599 5.45600000000002,25.053 C5.87900000000002,24.49 6.43700000000001,24.003 6.49199999999996,23.3 C6.54899999999998,22.5839999999999 6.21199999999999,22.058 5.97400000000005,21.4829999999999 C5.60299999999995,20.588 5.37199999999996,19.624 4.54899999999998,19.276 C3.28200000000004,18.742 0.952,19.396 0.72500000000002,17.654 C0.72500000000002,16.961 0.72500000000002,16.269 0.72500000000002,15.577 C0.90999999999997,13.844 3.39499999999998,14.49 4.61300000000006,13.889 C5.29999999999995,13.551 5.44600000000003,12.956 5.77999999999997,12.137 C6.06399999999996,11.44 6.60000000000002,10.861 6.49199999999996,9.86500000000001 C6.34400000000005,8.49000000000001 4.36599999999999,7.786 4.61300000000006,6.23099999999999 C4.70600000000002,5.64600000000002 5.17399999999998,5.40899999999999 5.64999999999998,4.93299999999999 C6.07100000000003,4.51100000000002 6.48199999999997,3.959 7.01099999999997,3.89400000000001 C8.51499999999999,3.70999999999998 9.24000000000001,5.70499999999998 10.704,5.77600000000001 C11.578,5.81900000000002 12.155,5.34699999999998 12.843,5.06200000000001 C13.519,4.78300000000002 14.288,4.53199999999998 14.592,3.959 C15.258,2.70299999999997 14.421,0.44799999999998 16.212,0 ZM12.97,16.8200000000001 C13.024,18.08 13.631,19.16 14.328,19.811 C16.703,22.03 21.59,20.846 21.657,16.684 C21.7,14.024 19.501,12.009 16.8390000000001,12.333 C14.617,12.604 12.866,14.365 12.97,16.8200000000001 Z "/></svg>