<?xml version="1.0" encoding="utf-8"?><!DOCTYPE svg PUBLIC "-//W3C//DTD SVG 1.1//EN" "http://www.w3.org/Graphics/SVG/1.1/DTD/svg11.dtd"><svg version="1.1" baseProfile="full" xmlns="http://www.w3.org/2000/svg" xmlns:xlink="http://www.w3.org/1999/xlink" xmlns:ev="http://www.w3.org/2001/xml-events"   height="33px"   width="36px" ><path fill="rgb( 37, 193, 242 )" d="M31.991,31.984 C31.514,32.173 30.8099999999999,32.039 30.473,31.809 C26.601,29.183 22.731,26.558 18.861,23.931 C16.982,24.841 14.703,24.776 12.829,23.548 C10.67,22.133 9.661,19.585 10.075,17.163 C10.075,17.163 14.146,19.833 14.146,19.833 C14.492,20.061 14.956,19.9589999999999 15.177,19.609 C15.177,19.609 16.991,16.7430000000001 16.991,16.7430000000001 C17.213,16.3920000000001 17.113,15.923 16.769,15.696 C16.769,15.696 12.694,13.029 12.694,13.029 C14.694,11.645 17.391,11.526 19.55,12.938 C21.425,14.169 22.423,16.253 22.385,18.369 C26.337,20.866 30.285,23.37 34.236,25.871 C34.581,26.087 34.9930000000001,26.684 35.023,27.203 C35.141,29.2380000000001 33.8630000000001,31.254 31.991,31.984 ZM30.574,8.06799999999998 C30.574,8.06799999999998 2.07499999999999,8.06799999999998 2.07499999999999,8.06799999999998 C2.07499999999999,8.06799999999998 2.07499999999999,28.09 2.07499999999999,28.09 C2.07499999999999,28.09 21.2910000000001,28.09 21.2910000000001,28.09 C21.2910000000001,28.09 24.398,30.198 24.398,30.198 C24.398,30.198 1.03899999999999,30.198 1.03899999999999,30.198 C0.46600000000001,30.198 0.00299999999999,29.729 0.00299999999999,29.145 C0.00299999999999,29.145 0.00299999999999,1.74199999999996 0.00299999999999,1.74199999999996 C0.00299999999999,1.16099999999994 0.46600000000001,0.68899999999996 1.03899999999999,0.68899999999996 C1.03899999999999,0.68899999999996 31.6130000000001,0.68899999999996 31.6130000000001,0.68899999999996 C32.183,0.68899999999996 32.647,1.16099999999994 32.647,1.74199999999996 C32.647,1.74199999999996 32.647,22.681 32.647,22.681 C32.647,22.681 30.574,21.37 30.574,21.37 C30.574,21.37 30.574,8.06799999999998 30.574,8.06799999999998 ZM21.076,2.97199999999998 C20.312,2.97199999999998 19.6950000000001,3.601 19.6950000000001,4.37699999999995 C19.6950000000001,5.15300000000002 20.312,5.78399999999999 21.076,5.78399999999999 C21.838,5.78399999999999 22.46,5.15300000000002 22.46,4.37699999999995 C22.46,3.601 21.838,2.97199999999998 21.076,2.97199999999998 ZM25.136,2.97199999999998 C24.373,2.97199999999998 23.753,3.601 23.753,4.37699999999995 C23.753,5.15300000000002 24.373,5.78399999999999 25.136,5.78399999999999 C25.899,5.78399999999999 26.516,5.15300000000002 26.516,4.37699999999995 C26.516,3.601 25.899,2.97199999999998 25.136,2.97199999999998 ZM29.194,2.97199999999998 C28.429,2.97199999999998 27.812,3.601 27.812,4.37699999999995 C27.812,5.15300000000002 28.429,5.78399999999999 29.194,5.78399999999999 C29.958,5.78399999999999 30.574,5.15300000000002 30.574,4.37699999999995 C30.574,3.601 29.958,2.97199999999998 29.194,2.97199999999998 Z "/></svg>