<?xml version="1.0" encoding="utf-8"?><!DOCTYPE svg PUBLIC "-//W3C//DTD SVG 1.1//EN" "http://www.w3.org/Graphics/SVG/1.1/DTD/svg11.dtd"><svg version="1.1" baseProfile="full" xmlns="http://www.w3.org/2000/svg" xmlns:xlink="http://www.w3.org/1999/xlink" xmlns:ev="http://www.w3.org/2001/xml-events"   height="19px"   width="17px" ><path fill="rgb( 255, 255, 255 )" d="M4.07600000000002,1.024 C4.70000000000005,0.89600000000002 5.077,1.29399999999998 5.41399999999999,1.73399999999998 C5.64100000000008,2.02999999999997 5.89400000000001,2.40499999999997 6.11500000000001,2.78100000000001 C6.55500000000006,3.524 7.15699999999993,4.38299999999998 6.91200000000003,5.38200000000001 C6.78099999999995,5.91399999999999 6.32199999999989,6.26100000000002 5.9559999999999,6.59899999999999 C5.60400000000004,6.92200000000003 5.06500000000005,7.17099999999999 4.93599999999992,7.71300000000002 C4.74499999999989,8.517 5.2059999999999,9.32100000000003 5.50999999999999,9.84199999999998 C5.84899999999993,10.423 6.23700000000008,10.915 6.65699999999993,11.43 C7.06799999999998,11.932 7.50299999999993,12.392 7.99499999999989,12.814 C8.48399999999992,13.234 9.09999999999991,13.746 9.84400000000005,13.591 C10.3199999999999,13.492 10.5820000000001,13.056 10.895,12.747 C11.232,12.414 11.6479999999999,11.946 12.202,11.868 C13.2180000000001,11.725 14.009,12.575 14.528,13.051 C14.819,13.318 15.117,13.573 15.4200000000001,13.929 C15.702,14.261 16.0160000000001,14.605 15.9939999999999,15.146 C15.972,15.687 15.491,16.029 15.165,16.328 C14.8240000000001,16.643 14.4770000000001,17.04 14.114,17.274 C13.2550000000001,17.828 12.259,18.076 11.1500000000001,18.017 C10.078,17.961 9.08200000000011,17.558 8.31400000000008,17.105 C6.72600000000011,16.169 5.47000000000003,14.922 4.29899999999998,13.49 C3.10599999999999,12.032 2.07799999999997,10.554 1.43100000000004,8.66000000000003 C0.64899999999989,6.36900000000003 0.99199999999996,4.02499999999998 2.19499999999994,2.54399999999998 C2.42599999999993,2.26100000000002 2.74499999999989,2.01299999999998 3.05600000000004,1.73399999999998 C3.34999999999991,1.46899999999999 3.64300000000003,1.113 4.07600000000002,1.024 Z "/></svg>