<?xml version="1.0" encoding="utf-8"?><!DOCTYPE svg PUBLIC "-//W3C//DTD SVG 1.1//EN" "http://www.w3.org/Graphics/SVG/1.1/DTD/svg11.dtd"><svg version="1.1" baseProfile="full" xmlns="http://www.w3.org/2000/svg" xmlns:xlink="http://www.w3.org/1999/xlink" xmlns:ev="http://www.w3.org/2001/xml-events"   height="35px"   width="29px" ><path fill="rgb( 190, 190, 190 )" d="M26.3779999999999,13.2890000000002 C26.375,13.29 26.3710000000001,13.2919999999999 26.3679999999999,13.2959999999998 C27.816,15.491 28.6600000000001,18.114 28.6600000000001,20.9340000000002 C28.6600000000001,28.6419999999998 22.374,34.8899999999999 14.619,34.8899999999999 C6.86500000000001,34.8899999999999 0.57899999999995,28.6419999999998 0.57899999999995,20.9340000000002 C0.57899999999995,14.4250000000002 5.06100000000004,8.95800000000008 11.124,7.41300000000001 C11.12,7.36499999999978 11.109,7.31899999999996 11.109,7.26800000000003 C11.109,6.14499999999998 12.026,5.23300000000017 13.157,5.23300000000017 C13.157,5.23300000000017 16.082,5.23300000000017 16.082,5.23300000000017 C17.213,5.23300000000017 18.129,6.14499999999998 18.129,7.26800000000003 C18.129,7.31899999999996 18.119,7.36499999999978 18.115,7.41300000000001 C19.903,7.86999999999989 21.5549999999999,8.66800000000012 22.994,9.73199999999997 C22.994,9.73199999999997 23.922,8.8090000000002 23.922,8.8090000000002 C24.667,8.06800000000021 25.875,8.06800000000021 26.6210000000001,8.8090000000002 C26.6210000000001,8.8090000000002 27.402,9.58699999999999 27.402,9.58699999999999 C28.1479999999999,10.328 28.1479999999999,11.529 27.402,12.2689999999998 C27.402,12.2689999999998 26.3779999999999,13.2890000000002 26.3779999999999,13.2890000000002 ZM22.581,14.1869999999999 C22.581,14.1869999999999 21.716,15.0450000000001 21.716,15.0450000000001 C21.477,15.2829999999999 21.085,15.2829999999999 20.845,15.0439999999999 C20.845,15.0439999999999 20.5839999999999,14.7840000000001 20.5839999999999,14.7840000000001 C20.345,14.5459999999998 20.345,14.1550000000002 20.5839999999999,13.9180000000001 C20.5839999999999,13.9180000000001 21.449,13.058 21.449,13.058 C19.804,11.645 17.716,10.7379999999998 15.42,10.5619999999999 C15.42,10.5619999999999 15.42,11.52 15.42,11.52 C15.42,11.8560000000002 15.143,12.1329999999998 14.8049999999999,12.1329999999998 C14.8049999999999,12.1329999999998 14.433,12.1329999999998 14.433,12.1329999999998 C14.095,12.1329999999998 13.818,11.8560000000002 13.818,11.52 C13.818,11.52 13.818,10.5630000000001 13.818,10.5630000000001 C11.523,10.7379999999998 9.43399999999997,11.6460000000002 7.78800000000001,13.0590000000002 C7.78800000000001,13.0590000000002 8.65499999999997,13.9189999999999 8.65499999999997,13.9189999999999 C8.89400000000001,14.1570000000002 8.89400000000001,14.547 8.65499999999997,14.7860000000001 C8.65499999999997,14.7860000000001 8.39300000000003,15.0450000000001 8.39300000000003,15.0450000000001 C8.15300000000002,15.2829999999999 7.76099999999997,15.2829999999999 7.52099999999996,15.0450000000001 C7.52099999999996,15.0450000000001 6.65700000000004,14.1869999999999 6.65700000000004,14.1869999999999 C5.24900000000002,15.826 4.34900000000005,17.9000000000001 4.18399999999997,20.1779999999999 C4.18399999999997,20.1779999999999 5.14800000000002,20.1779999999999 5.14800000000002,20.1779999999999 C5.48699999999997,20.1779999999999 5.76400000000001,20.4540000000002 5.76400000000001,20.7890000000002 C5.76400000000001,20.7890000000002 5.76400000000001,21.1570000000002 5.76400000000001,21.1570000000002 C5.76400000000001,21.4940000000001 5.48699999999997,21.7689999999998 5.14800000000002,21.7689999999998 C5.14800000000002,21.7689999999998 4.18799999999999,21.7689999999998 4.18799999999999,21.7689999999998 C4.37,24.0349999999999 5.28300000000002,26.096 6.69500000000005,27.7220000000002 C6.69500000000005,27.7220000000002 7.52099999999996,26.902 7.52099999999996,26.902 C7.76099999999997,26.6640000000002 8.15300000000002,26.6640000000002 8.39300000000003,26.902 C8.39300000000003,26.902 8.65499999999997,27.163 8.65499999999997,27.163 C8.89400000000001,27.402 8.89400000000001,27.7910000000002 8.65499999999997,28.0300000000002 C8.65499999999997,28.0300000000002 7.83000000000004,28.848 7.83000000000004,28.848 C9.47000000000003,30.239 11.542,31.1320000000001 13.818,31.3049999999998 C13.818,31.3049999999998 13.818,30.3490000000002 13.818,30.3490000000002 C13.818,30.0120000000002 14.095,29.7359999999999 14.433,29.7359999999999 C14.433,29.7359999999999 14.8049999999999,29.7359999999999 14.8049999999999,29.7359999999999 C15.143,29.7359999999999 15.42,30.0120000000002 15.42,30.3490000000002 C15.42,30.3490000000002 15.42,31.306 15.42,31.306 C17.696,31.1320000000001 19.768,30.239 21.408,28.848 C21.408,28.848 20.5839999999999,28.0300000000002 20.5839999999999,28.0300000000002 C20.345,27.7910000000002 20.345,27.402 20.5839999999999,27.1640000000002 C20.5839999999999,27.1640000000002 20.845,26.9029999999998 20.845,26.9029999999998 C21.085,26.6660000000002 21.477,26.6660000000002 21.716,26.9029999999998 C21.716,26.9029999999998 22.542,27.7240000000002 22.542,27.7240000000002 C23.955,26.098 24.869,24.0360000000001 25.051,21.7689999999998 C25.051,21.7689999999998 24.091,21.7689999999998 24.091,21.7689999999998 C23.753,21.7689999999998 23.475,21.4940000000001 23.475,21.1570000000002 C23.475,21.1570000000002 23.475,20.7890000000002 23.475,20.7890000000002 C23.475,20.4540000000002 23.753,20.1779999999999 24.091,20.1779999999999 C24.091,20.1779999999999 25.0549999999999,20.1779999999999 25.0549999999999,20.1779999999999 C24.89,17.9000000000001 23.989,15.826 22.581,14.1869999999999 ZM20.4690000000001,22.098 C20.4690000000001,22.098 16.375,22.098 16.375,22.098 C16.37,22.098 16.366,22.096 16.361,22.096 C15.946,22.6669999999999 15.275,23.0419999999999 14.5119999999999,23.0419999999999 C13.251,23.0419999999999 12.228,22.0250000000001 12.228,20.7719999999999 C12.228,19.518 13.251,18.5 14.5119999999999,18.5 C15.41,18.5 16.1799999999999,19.0210000000002 16.554,19.7710000000002 C16.554,19.7710000000002 20.4690000000001,19.7710000000002 20.4690000000001,19.7710000000002 C21.116,19.7710000000002 21.64,20.2910000000002 21.64,20.9340000000002 C21.64,21.5770000000002 21.116,22.098 20.4690000000001,22.098 ZM18.7140000000001,4.07000000000016 C18.7140000000001,4.07000000000016 10.524,4.07000000000016 10.524,4.07000000000016 C10.242,4.07000000000016 9.93899999999996,4.07000000000016 9.93899999999996,3.48799999999983 C9.93899999999996,3.48799999999983 9.93899999999996,2.03499999999985 9.93899999999996,2.03499999999985 C9.93899999999996,0.91100000000006 11.602,0 13.45,0 C13.45,0 15.789,0 15.789,0 C17.561,0 19.3,0.91100000000006 19.3,2.03499999999985 C19.3,2.03499999999985 19.3,3.48799999999983 19.3,3.48799999999983 C19.3,4.07000000000016 18.987,4.07000000000016 18.7140000000001,4.07000000000016 Z "/></svg>