<?xml version="1.0" encoding="utf-8"?><!DOCTYPE svg PUBLIC "-//W3C//DTD SVG 1.1//EN" "http://www.w3.org/Graphics/SVG/1.1/DTD/svg11.dtd"><svg version="1.1" baseProfile="full" xmlns="http://www.w3.org/2000/svg" xmlns:xlink="http://www.w3.org/1999/xlink" xmlns:ev="http://www.w3.org/2001/xml-events"   height="12px"   width="17px" ><path fill="rgb( 255, 255, 255 )" d="M12.625,9.66899999999998 C9.92100000000005,11.609 5.83699999999999,11.346 3.32400000000007,9.16899999999998 C2.19100000000003,8.18600000000004 1.16200000000003,7.09500000000003 0,5.971 C1.36400000000003,4.76900000000001 2.62300000000005,3.44600000000003 4.10100000000011,2.40099999999995 C6.78999999999996,0.49800000000005 10.8499999999999,0.78499999999997 13.3420000000001,2.94399999999996 C14.4749999999999,3.92600000000004 15.5029999999999,5.01800000000003 16.663,6.14200000000005 C15.3219999999999,7.32799999999997 14.078,8.62800000000004 12.625,9.66899999999998 ZM8.34899999999993,3.11699999999996 C6.65699999999993,3.10799999999995 5.23700000000008,4.44100000000003 5.23099999999999,6.04100000000005 C5.22600000000011,7.649 6.62400000000002,8.98800000000006 8.31700000000001,8.99599999999998 C10.0119999999999,9.00400000000002 11.4290000000001,7.67499999999995 11.4359999999999,6.07000000000005 C11.442,4.46400000000006 10.0429999999999,3.12599999999998 8.34899999999993,3.11699999999996 ZM8.85699999999997,7.82100000000003 C8.68499999999995,7.86699999999996 8.50900000000001,7.88999999999999 8.3309999999999,7.88999999999999 C7.46100000000001,7.88999999999999 6.68900000000008,7.33500000000004 6.45399999999995,6.53999999999996 C6.16399999999999,5.55899999999997 6.76999999999998,4.53700000000003 7.80600000000004,4.26199999999994 C7.97800000000007,4.21600000000001 8.15499999999997,4.19299999999998 8.33200000000011,4.19299999999998 C9.202,4.19299999999998 9.97399999999993,4.74800000000005 10.2090000000001,5.54300000000001 C10.5,6.524 9.89300000000003,7.54600000000005 8.85699999999997,7.82100000000003 Z "/></svg>